ISO-10303-21;
HEADER;
/* Generated by software containing ST-Developer
 * from STEP Tools, Inc. (www.steptools.com) 
 */

FILE_DESCRIPTION(
/* description */ (''),
/* implementation_level */ '2;1');

FILE_NAME(
/* name */ 'Air_heater_button.stp',
/* time_stamp */ '2025-09-19T12:07:42+02:00',
/* author */ ('TSO'),
/* organization */ (''),
/* preprocessor_version */ 'ST-DEVELOPER v20',
/* originating_system */ 'Autodesk Inventor 2025',
/* authorisation */ '');

FILE_SCHEMA (('AUTOMOTIVE_DESIGN { 1 0 10303 214 3 1 1 }'));
ENDSEC;

DATA;
#10=MECHANICAL_DESIGN_GEOMETRIC_PRESENTATION_REPRESENTATION('',(#13),#433);
#11=SHAPE_REPRESENTATION_RELATIONSHIP('SRR','None',#440,#12);
#12=ADVANCED_BREP_SHAPE_REPRESENTATION('',(#14),#432);
#13=STYLED_ITEM('',(#449),#14);
#14=MANIFOLD_SOLID_BREP('Solid1',#260);
#15=FACE_BOUND('',#43,.T.);
#16=FACE_OUTER_BOUND('',#30,.T.);
#17=FACE_OUTER_BOUND('',#31,.T.);
#18=FACE_OUTER_BOUND('',#32,.T.);
#19=FACE_OUTER_BOUND('',#33,.T.);
#20=FACE_OUTER_BOUND('',#34,.T.);
#21=FACE_OUTER_BOUND('',#35,.T.);
#22=FACE_OUTER_BOUND('',#36,.T.);
#23=FACE_OUTER_BOUND('',#37,.T.);
#24=FACE_OUTER_BOUND('',#38,.T.);
#25=FACE_OUTER_BOUND('',#39,.T.);
#26=FACE_OUTER_BOUND('',#40,.T.);
#27=FACE_OUTER_BOUND('',#41,.T.);
#28=FACE_OUTER_BOUND('',#42,.T.);
#29=FACE_OUTER_BOUND('',#44,.T.);
#30=EDGE_LOOP('',(#166,#167,#168,#169));
#31=EDGE_LOOP('',(#170,#171,#172,#173));
#32=EDGE_LOOP('',(#174,#175,#176,#177));
#33=EDGE_LOOP('',(#178,#179,#180,#181));
#34=EDGE_LOOP('',(#182,#183,#184,#185));
#35=EDGE_LOOP('',(#186,#187,#188,#189));
#36=EDGE_LOOP('',(#190,#191,#192,#193));
#37=EDGE_LOOP('',(#194,#195,#196,#197,#198,#199,#200));
#38=EDGE_LOOP('',(#201,#202,#203,#204));
#39=EDGE_LOOP('',(#205,#206,#207,#208));
#40=EDGE_LOOP('',(#209,#210,#211,#212));
#41=EDGE_LOOP('',(#213,#214,#215,#216));
#42=EDGE_LOOP('',(#217,#218,#219,#220));
#43=EDGE_LOOP('',(#221,#222,#223,#224,#225,#226,#227));
#44=EDGE_LOOP('',(#228,#229,#230,#231));
#45=LINE('',#364,#78);
#46=LINE('',#366,#79);
#47=LINE('',#368,#80);
#48=LINE('',#369,#81);
#49=LINE('',#372,#82);
#50=LINE('',#374,#83);
#51=LINE('',#375,#84);
#52=LINE('',#378,#85);
#53=LINE('',#380,#86);
#54=LINE('',#381,#87);
#55=LINE('',#384,#88);
#56=LINE('',#386,#89);
#57=LINE('',#387,#90);
#58=LINE('',#390,#91);
#59=LINE('',#392,#92);
#60=LINE('',#393,#93);
#61=LINE('',#396,#94);
#62=LINE('',#398,#95);
#63=LINE('',#399,#96);
#64=LINE('',#401,#97);
#65=LINE('',#402,#98);
#66=LINE('',#407,#99);
#67=LINE('',#409,#100);
#68=LINE('',#411,#101);
#69=LINE('',#412,#102);
#70=LINE('',#415,#103);
#71=LINE('',#417,#104);
#72=LINE('',#418,#105);
#73=LINE('',#421,#106);
#74=LINE('',#423,#107);
#75=LINE('',#424,#108);
#76=LINE('',#426,#109);
#77=LINE('',#427,#110);
#78=VECTOR('',#301,10.);
#79=VECTOR('',#302,10.);
#80=VECTOR('',#303,10.);
#81=VECTOR('',#304,10.);
#82=VECTOR('',#307,10.);
#83=VECTOR('',#308,10.);
#84=VECTOR('',#309,10.);
#85=VECTOR('',#312,10.);
#86=VECTOR('',#313,10.);
#87=VECTOR('',#314,10.);
#88=VECTOR('',#317,10.);
#89=VECTOR('',#318,10.);
#90=VECTOR('',#319,10.);
#91=VECTOR('',#322,10.);
#92=VECTOR('',#323,10.);
#93=VECTOR('',#324,10.);
#94=VECTOR('',#327,10.);
#95=VECTOR('',#328,10.);
#96=VECTOR('',#329,10.);
#97=VECTOR('',#332,10.);
#98=VECTOR('',#333,10.);
#99=VECTOR('',#338,10.);
#100=VECTOR('',#339,10.);
#101=VECTOR('',#340,10.);
#102=VECTOR('',#341,10.);
#103=VECTOR('',#344,10.);
#104=VECTOR('',#345,10.);
#105=VECTOR('',#346,10.);
#106=VECTOR('',#349,10.);
#107=VECTOR('',#350,10.);
#108=VECTOR('',#351,10.);
#109=VECTOR('',#354,10.);
#110=VECTOR('',#355,10.);
#111=VERTEX_POINT('',#362);
#112=VERTEX_POINT('',#363);
#113=VERTEX_POINT('',#365);
#114=VERTEX_POINT('',#367);
#115=VERTEX_POINT('',#371);
#116=VERTEX_POINT('',#373);
#117=VERTEX_POINT('',#377);
#118=VERTEX_POINT('',#379);
#119=VERTEX_POINT('',#383);
#120=VERTEX_POINT('',#385);
#121=VERTEX_POINT('',#389);
#122=VERTEX_POINT('',#391);
#123=VERTEX_POINT('',#395);
#124=VERTEX_POINT('',#397);
#125=VERTEX_POINT('',#405);
#126=VERTEX_POINT('',#406);
#127=VERTEX_POINT('',#408);
#128=VERTEX_POINT('',#410);
#129=VERTEX_POINT('',#414);
#130=VERTEX_POINT('',#416);
#131=VERTEX_POINT('',#420);
#132=VERTEX_POINT('',#422);
#133=EDGE_CURVE('',#111,#112,#45,.T.);
#134=EDGE_CURVE('',#111,#113,#46,.T.);
#135=EDGE_CURVE('',#113,#114,#47,.T.);
#136=EDGE_CURVE('',#112,#114,#48,.T.);
#137=EDGE_CURVE('',#115,#111,#49,.T.);
#138=EDGE_CURVE('',#115,#116,#50,.T.);
#139=EDGE_CURVE('',#116,#113,#51,.T.);
#140=EDGE_CURVE('',#117,#115,#52,.T.);
#141=EDGE_CURVE('',#117,#118,#53,.T.);
#142=EDGE_CURVE('',#118,#116,#54,.T.);
#143=EDGE_CURVE('',#119,#117,#55,.T.);
#144=EDGE_CURVE('',#119,#120,#56,.T.);
#145=EDGE_CURVE('',#120,#118,#57,.T.);
#146=EDGE_CURVE('',#121,#119,#58,.T.);
#147=EDGE_CURVE('',#121,#122,#59,.T.);
#148=EDGE_CURVE('',#122,#120,#60,.T.);
#149=EDGE_CURVE('',#123,#121,#61,.T.);
#150=EDGE_CURVE('',#123,#124,#62,.T.);
#151=EDGE_CURVE('',#124,#122,#63,.T.);
#152=EDGE_CURVE('',#112,#123,#64,.T.);
#153=EDGE_CURVE('',#114,#124,#65,.T.);
#154=EDGE_CURVE('',#125,#126,#66,.T.);
#155=EDGE_CURVE('',#126,#127,#67,.T.);
#156=EDGE_CURVE('',#128,#127,#68,.T.);
#157=EDGE_CURVE('',#125,#128,#69,.T.);
#158=EDGE_CURVE('',#129,#125,#70,.T.);
#159=EDGE_CURVE('',#130,#128,#71,.T.);
#160=EDGE_CURVE('',#129,#130,#72,.T.);
#161=EDGE_CURVE('',#131,#129,#73,.T.);
#162=EDGE_CURVE('',#132,#130,#74,.T.);
#163=EDGE_CURVE('',#131,#132,#75,.T.);
#164=EDGE_CURVE('',#126,#131,#76,.T.);
#165=EDGE_CURVE('',#127,#132,#77,.T.);
#166=ORIENTED_EDGE('',*,*,#133,.F.);
#167=ORIENTED_EDGE('',*,*,#134,.T.);
#168=ORIENTED_EDGE('',*,*,#135,.T.);
#169=ORIENTED_EDGE('',*,*,#136,.F.);
#170=ORIENTED_EDGE('',*,*,#137,.F.);
#171=ORIENTED_EDGE('',*,*,#138,.T.);
#172=ORIENTED_EDGE('',*,*,#139,.T.);
#173=ORIENTED_EDGE('',*,*,#134,.F.);
#174=ORIENTED_EDGE('',*,*,#140,.F.);
#175=ORIENTED_EDGE('',*,*,#141,.T.);
#176=ORIENTED_EDGE('',*,*,#142,.T.);
#177=ORIENTED_EDGE('',*,*,#138,.F.);
#178=ORIENTED_EDGE('',*,*,#143,.F.);
#179=ORIENTED_EDGE('',*,*,#144,.T.);
#180=ORIENTED_EDGE('',*,*,#145,.T.);
#181=ORIENTED_EDGE('',*,*,#141,.F.);
#182=ORIENTED_EDGE('',*,*,#146,.F.);
#183=ORIENTED_EDGE('',*,*,#147,.T.);
#184=ORIENTED_EDGE('',*,*,#148,.T.);
#185=ORIENTED_EDGE('',*,*,#144,.F.);
#186=ORIENTED_EDGE('',*,*,#149,.F.);
#187=ORIENTED_EDGE('',*,*,#150,.T.);
#188=ORIENTED_EDGE('',*,*,#151,.T.);
#189=ORIENTED_EDGE('',*,*,#147,.F.);
#190=ORIENTED_EDGE('',*,*,#152,.F.);
#191=ORIENTED_EDGE('',*,*,#136,.T.);
#192=ORIENTED_EDGE('',*,*,#153,.T.);
#193=ORIENTED_EDGE('',*,*,#150,.F.);
#194=ORIENTED_EDGE('',*,*,#153,.F.);
#195=ORIENTED_EDGE('',*,*,#135,.F.);
#196=ORIENTED_EDGE('',*,*,#139,.F.);
#197=ORIENTED_EDGE('',*,*,#142,.F.);
#198=ORIENTED_EDGE('',*,*,#145,.F.);
#199=ORIENTED_EDGE('',*,*,#148,.F.);
#200=ORIENTED_EDGE('',*,*,#151,.F.);
#201=ORIENTED_EDGE('',*,*,#154,.T.);
#202=ORIENTED_EDGE('',*,*,#155,.T.);
#203=ORIENTED_EDGE('',*,*,#156,.F.);
#204=ORIENTED_EDGE('',*,*,#157,.F.);
#205=ORIENTED_EDGE('',*,*,#158,.T.);
#206=ORIENTED_EDGE('',*,*,#157,.T.);
#207=ORIENTED_EDGE('',*,*,#159,.F.);
#208=ORIENTED_EDGE('',*,*,#160,.F.);
#209=ORIENTED_EDGE('',*,*,#161,.T.);
#210=ORIENTED_EDGE('',*,*,#160,.T.);
#211=ORIENTED_EDGE('',*,*,#162,.F.);
#212=ORIENTED_EDGE('',*,*,#163,.F.);
#213=ORIENTED_EDGE('',*,*,#164,.T.);
#214=ORIENTED_EDGE('',*,*,#163,.T.);
#215=ORIENTED_EDGE('',*,*,#165,.F.);
#216=ORIENTED_EDGE('',*,*,#155,.F.);
#217=ORIENTED_EDGE('',*,*,#165,.T.);
#218=ORIENTED_EDGE('',*,*,#162,.T.);
#219=ORIENTED_EDGE('',*,*,#159,.T.);
#220=ORIENTED_EDGE('',*,*,#156,.T.);
#221=ORIENTED_EDGE('',*,*,#133,.T.);
#222=ORIENTED_EDGE('',*,*,#152,.T.);
#223=ORIENTED_EDGE('',*,*,#149,.T.);
#224=ORIENTED_EDGE('',*,*,#146,.T.);
#225=ORIENTED_EDGE('',*,*,#143,.T.);
#226=ORIENTED_EDGE('',*,*,#140,.T.);
#227=ORIENTED_EDGE('',*,*,#137,.T.);
#228=ORIENTED_EDGE('',*,*,#164,.F.);
#229=ORIENTED_EDGE('',*,*,#154,.F.);
#230=ORIENTED_EDGE('',*,*,#158,.F.);
#231=ORIENTED_EDGE('',*,*,#161,.F.);
#232=PLANE('',#283);
#233=PLANE('',#284);
#234=PLANE('',#285);
#235=PLANE('',#286);
#236=PLANE('',#287);
#237=PLANE('',#288);
#238=PLANE('',#289);
#239=PLANE('',#290);
#240=PLANE('',#291);
#241=PLANE('',#292);
#242=PLANE('',#293);
#243=PLANE('',#294);
#244=PLANE('',#295);
#245=PLANE('',#296);
#246=ADVANCED_FACE('',(#16),#232,.F.);
#247=ADVANCED_FACE('',(#17),#233,.F.);
#248=ADVANCED_FACE('',(#18),#234,.F.);
#249=ADVANCED_FACE('',(#19),#235,.F.);
#250=ADVANCED_FACE('',(#20),#236,.F.);
#251=ADVANCED_FACE('',(#21),#237,.F.);
#252=ADVANCED_FACE('',(#22),#238,.F.);
#253=ADVANCED_FACE('',(#23),#239,.F.);
#254=ADVANCED_FACE('',(#24),#240,.T.);
#255=ADVANCED_FACE('',(#25),#241,.T.);
#256=ADVANCED_FACE('',(#26),#242,.T.);
#257=ADVANCED_FACE('',(#27),#243,.T.);
#258=ADVANCED_FACE('',(#28,#15),#244,.T.);
#259=ADVANCED_FACE('',(#29),#245,.F.);
#260=CLOSED_SHELL('',(#246,#247,#248,#249,#250,#251,#252,#253,#254,#255,
#256,#257,#258,#259));
#261=DERIVED_UNIT_ELEMENT(#264,1.);
#262=DERIVED_UNIT_ELEMENT(#435,-3.);
#263=DIMENSIONAL_EXPONENTS(0.,1.,0.,0.,0.,0.,0.);
#264=(
CONVERSION_BASED_UNIT('gram',#266)
MASS_UNIT()
NAMED_UNIT(#263)
);
#265=(
MASS_UNIT()
NAMED_UNIT(*)
SI_UNIT(.KILO.,.GRAM.)
);
#266=MASS_MEASURE_WITH_UNIT(MASS_MEASURE(0.001),#265);
#267=DERIVED_UNIT((#261,#262));
#268=MEASURE_REPRESENTATION_ITEM('density measure',
POSITIVE_RATIO_MEASURE(1.),#267);
#269=PROPERTY_DEFINITION_REPRESENTATION(#274,#271);
#270=PROPERTY_DEFINITION_REPRESENTATION(#275,#272);
#271=REPRESENTATION('material name',(#273),#432);
#272=REPRESENTATION('density',(#268),#432);
#273=DESCRIPTIVE_REPRESENTATION_ITEM('Generic','Generic');
#274=PROPERTY_DEFINITION('material property','material name',#442);
#275=PROPERTY_DEFINITION('material property','density of part',#442);
#276=DATE_TIME_ROLE('creation_date');
#277=APPLIED_DATE_AND_TIME_ASSIGNMENT(#278,#276,(#442));
#278=DATE_AND_TIME(#279,#280);
#279=CALENDAR_DATE(2025,19,9);
#280=LOCAL_TIME(0,0,0.,#281);
#281=COORDINATED_UNIVERSAL_TIME_OFFSET(0,0,.BEHIND.);
#282=AXIS2_PLACEMENT_3D('',#360,#297,#298);
#283=AXIS2_PLACEMENT_3D('',#361,#299,#300);
#284=AXIS2_PLACEMENT_3D('',#370,#305,#306);
#285=AXIS2_PLACEMENT_3D('',#376,#310,#311);
#286=AXIS2_PLACEMENT_3D('',#382,#315,#316);
#287=AXIS2_PLACEMENT_3D('',#388,#320,#321);
#288=AXIS2_PLACEMENT_3D('',#394,#325,#326);
#289=AXIS2_PLACEMENT_3D('',#400,#330,#331);
#290=AXIS2_PLACEMENT_3D('',#403,#334,#335);
#291=AXIS2_PLACEMENT_3D('',#404,#336,#337);
#292=AXIS2_PLACEMENT_3D('',#413,#342,#343);
#293=AXIS2_PLACEMENT_3D('',#419,#347,#348);
#294=AXIS2_PLACEMENT_3D('',#425,#352,#353);
#295=AXIS2_PLACEMENT_3D('',#428,#356,#357);
#296=AXIS2_PLACEMENT_3D('',#429,#358,#359);
#297=DIRECTION('axis',(0.,0.,1.));
#298=DIRECTION('refdir',(1.,0.,0.));
#299=DIRECTION('center_axis',(1.,0.,0.));
#300=DIRECTION('ref_axis',(0.,0.,1.));
#301=DIRECTION('',(0.,0.,1.));
#302=DIRECTION('',(0.,-1.,0.));
#303=DIRECTION('',(0.,0.,1.));
#304=DIRECTION('',(0.,-1.,0.));
#305=DIRECTION('center_axis',(-0.875577684026794,0.,-0.483077342911335));
#306=DIRECTION('ref_axis',(0.483077342911335,0.,-0.875577684026794));
#307=DIRECTION('',(0.483077342911335,0.,-0.875577684026794));
#308=DIRECTION('',(0.,-1.,0.));
#309=DIRECTION('',(0.483077342911335,0.,-0.875577684026794));
#310=DIRECTION('center_axis',(-0.875577684026794,0.,0.483077342911335));
#311=DIRECTION('ref_axis',(-0.483077342911335,0.,-0.875577684026794));
#312=DIRECTION('',(-0.483077342911335,0.,-0.875577684026794));
#313=DIRECTION('',(0.,-1.,0.));
#314=DIRECTION('',(-0.483077342911335,0.,-0.875577684026794));
#315=DIRECTION('center_axis',(1.,0.,-1.11022302462515E-15));
#316=DIRECTION('ref_axis',(1.11022302462515E-15,0.,1.));
#317=DIRECTION('',(1.11022302462515E-15,0.,1.));
#318=DIRECTION('',(0.,-1.,0.));
#319=DIRECTION('',(1.11022302462515E-15,0.,1.));
#320=DIRECTION('center_axis',(0.,0.,1.));
#321=DIRECTION('ref_axis',(-1.,0.,0.));
#322=DIRECTION('',(-1.,0.,0.));
#323=DIRECTION('',(0.,-1.,0.));
#324=DIRECTION('',(-1.,0.,0.));
#325=DIRECTION('center_axis',(1.,0.,0.));
#326=DIRECTION('ref_axis',(0.,0.,1.));
#327=DIRECTION('',(0.,0.,1.));
#328=DIRECTION('',(0.,-1.,0.));
#329=DIRECTION('',(0.,0.,1.));
#330=DIRECTION('center_axis',(0.,0.,-1.));
#331=DIRECTION('ref_axis',(1.,0.,0.));
#332=DIRECTION('',(1.,0.,0.));
#333=DIRECTION('',(1.,0.,0.));
#334=DIRECTION('center_axis',(0.,-1.,0.));
#335=DIRECTION('ref_axis',(0.,0.,-1.));
#336=DIRECTION('center_axis',(1.,0.,0.));
#337=DIRECTION('ref_axis',(0.,0.,-1.));
#338=DIRECTION('',(0.,0.,-1.));
#339=DIRECTION('',(0.,1.,0.));
#340=DIRECTION('',(0.,0.,-1.));
#341=DIRECTION('',(0.,1.,0.));
#342=DIRECTION('center_axis',(0.,0.,1.));
#343=DIRECTION('ref_axis',(1.,0.,0.));
#344=DIRECTION('',(1.,0.,0.));
#345=DIRECTION('',(1.,0.,0.));
#346=DIRECTION('',(0.,1.,0.));
#347=DIRECTION('center_axis',(-1.,0.,0.));
#348=DIRECTION('ref_axis',(0.,0.,1.));
#349=DIRECTION('',(0.,0.,1.));
#350=DIRECTION('',(0.,0.,1.));
#351=DIRECTION('',(0.,1.,0.));
#352=DIRECTION('center_axis',(0.,0.,-1.));
#353=DIRECTION('ref_axis',(-1.,0.,0.));
#354=DIRECTION('',(-1.,0.,0.));
#355=DIRECTION('',(-1.,0.,0.));
#356=DIRECTION('center_axis',(0.,1.,0.));
#357=DIRECTION('ref_axis',(0.,0.,1.));
#358=DIRECTION('center_axis',(0.,1.,0.));
#359=DIRECTION('ref_axis',(0.,0.,1.));
#360=CARTESIAN_POINT('',(0.,0.,0.));
#361=CARTESIAN_POINT('Origin',(-6.,20.,-8.875));
#362=CARTESIAN_POINT('',(-6.,20.,-8.875));
#363=CARTESIAN_POINT('',(-6.,20.,-7.875));
#364=CARTESIAN_POINT('',(-6.,20.,-7.0625));
#365=CARTESIAN_POINT('',(-6.,19.8,-8.875));
#366=CARTESIAN_POINT('',(-6.,20.,-8.875));
#367=CARTESIAN_POINT('',(-6.,19.8,-7.875));
#368=CARTESIAN_POINT('',(-6.,19.8,-1.625));
#369=CARTESIAN_POINT('',(-6.,20.,-7.875));
#370=CARTESIAN_POINT('Origin',(-8.,20.,-5.25));
#371=CARTESIAN_POINT('',(-8.,20.,-5.25));
#372=CARTESIAN_POINT('',(-7.67912488605287,20.,-5.83158614402917));
#373=CARTESIAN_POINT('',(-8.,19.8,-5.25));
#374=CARTESIAN_POINT('',(-8.,20.,-5.25));
#375=CARTESIAN_POINT('',(-6.,19.8,-8.875));
#376=CARTESIAN_POINT('Origin',(-6.,20.,-1.625));
#377=CARTESIAN_POINT('',(-6.,20.,-1.625));
#378=CARTESIAN_POINT('',(-6.67912488605287,20.,-2.85591385597083));
#379=CARTESIAN_POINT('',(-6.,19.8,-1.625));
#380=CARTESIAN_POINT('',(-6.,20.,-1.625));
#381=CARTESIAN_POINT('',(-8.,19.8,-5.25));
#382=CARTESIAN_POINT('Origin',(-6.,20.,-2.625));
#383=CARTESIAN_POINT('',(-6.,20.,-2.625));
#384=CARTESIAN_POINT('',(-6.,20.,-3.9375));
#385=CARTESIAN_POINT('',(-6.,19.8,-2.625));
#386=CARTESIAN_POINT('',(-6.,20.,-2.625));
#387=CARTESIAN_POINT('',(-6.,19.8,-1.625));
#388=CARTESIAN_POINT('Origin',(-2.,20.,-2.625));
#389=CARTESIAN_POINT('',(-2.,20.,-2.625));
#390=CARTESIAN_POINT('',(-3.625,20.,-2.625));
#391=CARTESIAN_POINT('',(-2.,19.8,-2.625));
#392=CARTESIAN_POINT('',(-2.,20.,-2.625));
#393=CARTESIAN_POINT('',(-6.,19.8,-2.625));
#394=CARTESIAN_POINT('Origin',(-2.,20.,-7.875));
#395=CARTESIAN_POINT('',(-2.,20.,-7.875));
#396=CARTESIAN_POINT('',(-2.,20.,-6.5625));
#397=CARTESIAN_POINT('',(-2.,19.8,-7.875));
#398=CARTESIAN_POINT('',(-2.,20.,-7.875));
#399=CARTESIAN_POINT('',(-2.,19.8,-2.625));
#400=CARTESIAN_POINT('Origin',(-6.,20.,-7.875));
#401=CARTESIAN_POINT('',(-5.625,20.,-7.875));
#402=CARTESIAN_POINT('',(-2.,19.8,-7.875));
#403=CARTESIAN_POINT('Origin',(-5.,19.8,-5.25));
#404=CARTESIAN_POINT('Origin',(0.,0.,0.));
#405=CARTESIAN_POINT('',(0.,0.,0.));
#406=CARTESIAN_POINT('',(0.,0.,-10.5));
#407=CARTESIAN_POINT('',(0.,0.,0.));
#408=CARTESIAN_POINT('',(0.,20.,-10.5));
#409=CARTESIAN_POINT('',(0.,0.,-10.5));
#410=CARTESIAN_POINT('',(0.,20.,0.));
#411=CARTESIAN_POINT('',(0.,20.,0.));
#412=CARTESIAN_POINT('',(0.,0.,0.));
#413=CARTESIAN_POINT('Origin',(-10.5,0.,0.));
#414=CARTESIAN_POINT('',(-10.5,0.,0.));
#415=CARTESIAN_POINT('',(-10.5,0.,0.));
#416=CARTESIAN_POINT('',(-10.5,20.,0.));
#417=CARTESIAN_POINT('',(-10.5,20.,0.));
#418=CARTESIAN_POINT('',(-10.5,0.,0.));
#419=CARTESIAN_POINT('Origin',(-10.5,0.,-10.5));
#420=CARTESIAN_POINT('',(-10.5,0.,-10.5));
#421=CARTESIAN_POINT('',(-10.5,0.,-10.5));
#422=CARTESIAN_POINT('',(-10.5,20.,-10.5));
#423=CARTESIAN_POINT('',(-10.5,20.,-10.5));
#424=CARTESIAN_POINT('',(-10.5,0.,-10.5));
#425=CARTESIAN_POINT('Origin',(0.,0.,-10.5));
#426=CARTESIAN_POINT('',(0.,0.,-10.5));
#427=CARTESIAN_POINT('',(0.,20.,-10.5));
#428=CARTESIAN_POINT('Origin',(-5.25,20.,-5.25));
#429=CARTESIAN_POINT('Origin',(-5.25,0.,-5.25));
#430=UNCERTAINTY_MEASURE_WITH_UNIT(LENGTH_MEASURE(0.01),#434,
'DISTANCE_ACCURACY_VALUE',
'Maximum model space distance between geometric entities at asserted c
onnectivities');
#431=UNCERTAINTY_MEASURE_WITH_UNIT(LENGTH_MEASURE(0.01),#434,
'DISTANCE_ACCURACY_VALUE',
'Maximum model space distance between geometric entities at asserted c
onnectivities');
#432=(
GEOMETRIC_REPRESENTATION_CONTEXT(3)
GLOBAL_UNCERTAINTY_ASSIGNED_CONTEXT((#430))
GLOBAL_UNIT_ASSIGNED_CONTEXT((#434,#436,#437))
REPRESENTATION_CONTEXT('','3D')
);
#433=(
GEOMETRIC_REPRESENTATION_CONTEXT(3)
GLOBAL_UNCERTAINTY_ASSIGNED_CONTEXT((#431))
GLOBAL_UNIT_ASSIGNED_CONTEXT((#434,#436,#437))
REPRESENTATION_CONTEXT('','3D')
);
#434=(
LENGTH_UNIT()
NAMED_UNIT(*)
SI_UNIT(.MILLI.,.METRE.)
);
#435=(
LENGTH_UNIT()
NAMED_UNIT(*)
SI_UNIT(.CENTI.,.METRE.)
);
#436=(
NAMED_UNIT(*)
PLANE_ANGLE_UNIT()
SI_UNIT($,.RADIAN.)
);
#437=(
NAMED_UNIT(*)
SI_UNIT($,.STERADIAN.)
SOLID_ANGLE_UNIT()
);
#438=SHAPE_DEFINITION_REPRESENTATION(#439,#440);
#439=PRODUCT_DEFINITION_SHAPE('',$,#442);
#440=SHAPE_REPRESENTATION('',(#282),#432);
#441=PRODUCT_DEFINITION_CONTEXT('part definition',#446,'design');
#442=PRODUCT_DEFINITION('Air_heater_button','Air_heater_button',#443,#441);
#443=PRODUCT_DEFINITION_FORMATION('',$,#448);
#444=PRODUCT_RELATED_PRODUCT_CATEGORY('Air_heater_button',
'Air_heater_button',(#448));
#445=APPLICATION_PROTOCOL_DEFINITION('international standard',
'automotive_design',2009,#446);
#446=APPLICATION_CONTEXT(
'Core Data for Automotive Mechanical Design Process');
#447=PRODUCT_CONTEXT('part definition',#446,'mechanical');
#448=PRODUCT('Air_heater_button','Air_heater_button',$,(#447));
#449=PRESENTATION_STYLE_ASSIGNMENT((#450));
#450=SURFACE_STYLE_USAGE(.BOTH.,#453);
#451=SURFACE_STYLE_RENDERING_WITH_PROPERTIES($,#457,(#452));
#452=SURFACE_STYLE_TRANSPARENT(0.);
#453=SURFACE_SIDE_STYLE('',(#454,#451));
#454=SURFACE_STYLE_FILL_AREA(#455);
#455=FILL_AREA_STYLE('',(#456));
#456=FILL_AREA_STYLE_COLOUR('',#457);
#457=COLOUR_RGB('',0.749019607843137,0.749019607843137,0.749019607843137);
ENDSEC;
END-ISO-10303-21;
