ISO-10303-21;
HEADER;
/* Generated by software containing ST-Developer
 * from STEP Tools, Inc. (www.steptools.com) 
 */

FILE_DESCRIPTION(
/* description */ (''),
/* implementation_level */ '2;1');

FILE_NAME(
/* name */ 'Breadboard_insert.stp',
/* time_stamp */ '2025-09-19T12:07:21+02:00',
/* author */ ('TSO'),
/* organization */ (''),
/* preprocessor_version */ 'ST-DEVELOPER v20',
/* originating_system */ 'Autodesk Inventor 2025',
/* authorisation */ '');

FILE_SCHEMA (('AUTOMOTIVE_DESIGN { 1 0 10303 214 3 1 1 }'));
ENDSEC;

DATA;
#10=MECHANICAL_DESIGN_GEOMETRIC_PRESENTATION_REPRESENTATION('',(#13),#1532);
#11=SHAPE_REPRESENTATION_RELATIONSHIP('SRR','None',#1539,#12);
#12=ADVANCED_BREP_SHAPE_REPRESENTATION('',(#14),#1531);
#13=STYLED_ITEM('',(#1548),#14);
#14=MANIFOLD_SOLID_BREP('Solid1',#945);
#15=ELLIPSE('',#996,2.82842712474619,2.);
#16=ELLIPSE('',#998,2.82842712474619,2.);
#17=ELLIPSE('',#1004,2.82842712474619,2.);
#18=ELLIPSE('',#1006,2.82842712474619,2.);
#19=CYLINDRICAL_SURFACE('',#995,2.);
#20=CYLINDRICAL_SURFACE('',#997,2.);
#21=CYLINDRICAL_SURFACE('',#999,2.);
#22=CYLINDRICAL_SURFACE('',#1003,2.);
#23=CYLINDRICAL_SURFACE('',#1005,2.);
#24=CYLINDRICAL_SURFACE('',#1007,2.);
#25=CIRCLE('',#981,2.);
#26=CIRCLE('',#985,2.);
#27=CIRCLE('',#989,2.);
#28=CIRCLE('',#993,2.);
#29=FACE_OUTER_BOUND('',#77,.T.);
#30=FACE_OUTER_BOUND('',#78,.T.);
#31=FACE_OUTER_BOUND('',#79,.T.);
#32=FACE_OUTER_BOUND('',#80,.T.);
#33=FACE_OUTER_BOUND('',#81,.T.);
#34=FACE_OUTER_BOUND('',#82,.T.);
#35=FACE_OUTER_BOUND('',#83,.T.);
#36=FACE_OUTER_BOUND('',#84,.T.);
#37=FACE_OUTER_BOUND('',#85,.T.);
#38=FACE_OUTER_BOUND('',#86,.T.);
#39=FACE_OUTER_BOUND('',#87,.T.);
#40=FACE_OUTER_BOUND('',#88,.T.);
#41=FACE_OUTER_BOUND('',#89,.T.);
#42=FACE_OUTER_BOUND('',#90,.T.);
#43=FACE_OUTER_BOUND('',#91,.T.);
#44=FACE_OUTER_BOUND('',#92,.T.);
#45=FACE_OUTER_BOUND('',#93,.T.);
#46=FACE_OUTER_BOUND('',#94,.T.);
#47=FACE_OUTER_BOUND('',#95,.T.);
#48=FACE_OUTER_BOUND('',#96,.T.);
#49=FACE_OUTER_BOUND('',#97,.T.);
#50=FACE_OUTER_BOUND('',#98,.T.);
#51=FACE_OUTER_BOUND('',#99,.T.);
#52=FACE_OUTER_BOUND('',#100,.T.);
#53=FACE_OUTER_BOUND('',#101,.T.);
#54=FACE_OUTER_BOUND('',#102,.T.);
#55=FACE_OUTER_BOUND('',#103,.T.);
#56=FACE_OUTER_BOUND('',#104,.T.);
#57=FACE_OUTER_BOUND('',#105,.T.);
#58=FACE_OUTER_BOUND('',#106,.T.);
#59=FACE_OUTER_BOUND('',#107,.T.);
#60=FACE_OUTER_BOUND('',#108,.T.);
#61=FACE_OUTER_BOUND('',#109,.T.);
#62=FACE_OUTER_BOUND('',#110,.T.);
#63=FACE_OUTER_BOUND('',#111,.T.);
#64=FACE_OUTER_BOUND('',#112,.T.);
#65=FACE_OUTER_BOUND('',#113,.T.);
#66=FACE_OUTER_BOUND('',#114,.T.);
#67=FACE_OUTER_BOUND('',#115,.T.);
#68=FACE_OUTER_BOUND('',#116,.T.);
#69=FACE_OUTER_BOUND('',#117,.T.);
#70=FACE_OUTER_BOUND('',#118,.T.);
#71=FACE_OUTER_BOUND('',#119,.T.);
#72=FACE_OUTER_BOUND('',#120,.T.);
#73=FACE_OUTER_BOUND('',#121,.T.);
#74=FACE_OUTER_BOUND('',#122,.T.);
#75=FACE_OUTER_BOUND('',#123,.T.);
#76=FACE_OUTER_BOUND('',#124,.T.);
#77=EDGE_LOOP('',(#591,#592,#593,#594));
#78=EDGE_LOOP('',(#595,#596,#597,#598));
#79=EDGE_LOOP('',(#599,#600,#601,#602));
#80=EDGE_LOOP('',(#603,#604,#605,#606));
#81=EDGE_LOOP('',(#607,#608,#609,#610));
#82=EDGE_LOOP('',(#611,#612,#613,#614));
#83=EDGE_LOOP('',(#615,#616,#617,#618,#619,#620,#621,#622,#623,#624,#625,
#626,#627,#628,#629,#630,#631,#632,#633,#634));
#84=EDGE_LOOP('',(#635,#636,#637,#638));
#85=EDGE_LOOP('',(#639,#640,#641,#642));
#86=EDGE_LOOP('',(#643,#644,#645,#646,#647,#648,#649,#650,#651,#652,#653,
#654));
#87=EDGE_LOOP('',(#655,#656,#657,#658));
#88=EDGE_LOOP('',(#659,#660,#661,#662));
#89=EDGE_LOOP('',(#663,#664,#665,#666,#667,#668,#669));
#90=EDGE_LOOP('',(#670,#671,#672,#673));
#91=EDGE_LOOP('',(#674,#675,#676,#677));
#92=EDGE_LOOP('',(#678,#679,#680,#681,#682,#683));
#93=EDGE_LOOP('',(#684,#685,#686,#687));
#94=EDGE_LOOP('',(#688,#689,#690,#691));
#95=EDGE_LOOP('',(#692,#693,#694,#695,#696,#697,#698));
#96=EDGE_LOOP('',(#699,#700,#701,#702));
#97=EDGE_LOOP('',(#703,#704,#705,#706));
#98=EDGE_LOOP('',(#707,#708,#709,#710,#711,#712));
#99=EDGE_LOOP('',(#713,#714,#715,#716,#717,#718,#719,#720,#721,#722,#723,
#724));
#100=EDGE_LOOP('',(#725,#726,#727,#728));
#101=EDGE_LOOP('',(#729,#730,#731,#732));
#102=EDGE_LOOP('',(#733,#734,#735,#736));
#103=EDGE_LOOP('',(#737,#738,#739,#740,#741,#742));
#104=EDGE_LOOP('',(#743,#744,#745,#746));
#105=EDGE_LOOP('',(#747,#748,#749,#750,#751,#752));
#106=EDGE_LOOP('',(#753,#754,#755,#756,#757));
#107=EDGE_LOOP('',(#758,#759,#760,#761));
#108=EDGE_LOOP('',(#762,#763,#764,#765,#766));
#109=EDGE_LOOP('',(#767,#768,#769,#770));
#110=EDGE_LOOP('',(#771,#772,#773,#774));
#111=EDGE_LOOP('',(#775,#776,#777,#778));
#112=EDGE_LOOP('',(#779,#780,#781,#782));
#113=EDGE_LOOP('',(#783,#784,#785,#786));
#114=EDGE_LOOP('',(#787,#788,#789,#790));
#115=EDGE_LOOP('',(#791,#792,#793,#794));
#116=EDGE_LOOP('',(#795,#796,#797,#798));
#117=EDGE_LOOP('',(#799,#800,#801,#802));
#118=EDGE_LOOP('',(#803,#804,#805,#806));
#119=EDGE_LOOP('',(#807,#808,#809,#810,#811,#812,#813,#814,#815,#816,#817,
#818,#819,#820,#821,#822,#823,#824,#825,#826));
#120=EDGE_LOOP('',(#827,#828,#829,#830));
#121=EDGE_LOOP('',(#831,#832,#833,#834));
#122=EDGE_LOOP('',(#835,#836,#837,#838,#839,#840,#841,#842,#843,#844,#845,
#846));
#123=EDGE_LOOP('',(#847,#848,#849,#850));
#124=EDGE_LOOP('',(#851,#852,#853,#854));
#125=LINE('',#1266,#249);
#126=LINE('',#1268,#250);
#127=LINE('',#1270,#251);
#128=LINE('',#1271,#252);
#129=LINE('',#1274,#253);
#130=LINE('',#1276,#254);
#131=LINE('',#1277,#255);
#132=LINE('',#1280,#256);
#133=LINE('',#1282,#257);
#134=LINE('',#1283,#258);
#135=LINE('',#1287,#259);
#136=LINE('',#1289,#260);
#137=LINE('',#1291,#261);
#138=LINE('',#1292,#262);
#139=LINE('',#1296,#263);
#140=LINE('',#1298,#264);
#141=LINE('',#1300,#265);
#142=LINE('',#1301,#266);
#143=LINE('',#1303,#267);
#144=LINE('',#1304,#268);
#145=LINE('',#1306,#269);
#146=LINE('',#1308,#270);
#147=LINE('',#1310,#271);
#148=LINE('',#1312,#272);
#149=LINE('',#1314,#273);
#150=LINE('',#1316,#274);
#151=LINE('',#1318,#275);
#152=LINE('',#1320,#276);
#153=LINE('',#1322,#277);
#154=LINE('',#1324,#278);
#155=LINE('',#1326,#279);
#156=LINE('',#1328,#280);
#157=LINE('',#1330,#281);
#158=LINE('',#1331,#282);
#159=LINE('',#1334,#283);
#160=LINE('',#1335,#284);
#161=LINE('',#1337,#285);
#162=LINE('',#1341,#286);
#163=LINE('',#1343,#287);
#164=LINE('',#1345,#288);
#165=LINE('',#1347,#289);
#166=LINE('',#1349,#290);
#167=LINE('',#1351,#291);
#168=LINE('',#1353,#292);
#169=LINE('',#1355,#293);
#170=LINE('',#1357,#294);
#171=LINE('',#1359,#295);
#172=LINE('',#1361,#296);
#173=LINE('',#1362,#297);
#174=LINE('',#1366,#298);
#175=LINE('',#1368,#299);
#176=LINE('',#1370,#300);
#177=LINE('',#1371,#301);
#178=LINE('',#1374,#302);
#179=LINE('',#1376,#303);
#180=LINE('',#1377,#304);
#181=LINE('',#1380,#305);
#182=LINE('',#1382,#306);
#183=LINE('',#1383,#307);
#184=LINE('',#1388,#308);
#185=LINE('',#1390,#309);
#186=LINE('',#1392,#310);
#187=LINE('',#1393,#311);
#188=LINE('',#1396,#312);
#189=LINE('',#1398,#313);
#190=LINE('',#1399,#314);
#191=LINE('',#1402,#315);
#192=LINE('',#1404,#316);
#193=LINE('',#1408,#317);
#194=LINE('',#1410,#318);
#195=LINE('',#1412,#319);
#196=LINE('',#1413,#320);
#197=LINE('',#1416,#321);
#198=LINE('',#1418,#322);
#199=LINE('',#1419,#323);
#200=LINE('',#1422,#324);
#201=LINE('',#1425,#325);
#202=LINE('',#1426,#326);
#203=LINE('',#1430,#327);
#204=LINE('',#1432,#328);
#205=LINE('',#1434,#329);
#206=LINE('',#1435,#330);
#207=LINE('',#1438,#331);
#208=LINE('',#1440,#332);
#209=LINE('',#1441,#333);
#210=LINE('',#1444,#334);
#211=LINE('',#1445,#335);
#212=LINE('',#1448,#336);
#213=LINE('',#1449,#337);
#214=LINE('',#1450,#338);
#215=LINE('',#1451,#339);
#216=LINE('',#1454,#340);
#217=LINE('',#1458,#341);
#218=LINE('',#1461,#342);
#219=LINE('',#1464,#343);
#220=LINE('',#1465,#344);
#221=LINE('',#1468,#345);
#222=LINE('',#1469,#346);
#223=LINE('',#1471,#347);
#224=LINE('',#1479,#348);
#225=LINE('',#1481,#349);
#226=LINE('',#1482,#350);
#227=LINE('',#1485,#351);
#228=LINE('',#1487,#352);
#229=LINE('',#1488,#353);
#230=LINE('',#1490,#354);
#231=LINE('',#1493,#355);
#232=LINE('',#1494,#356);
#233=LINE('',#1497,#357);
#234=LINE('',#1499,#358);
#235=LINE('',#1500,#359);
#236=LINE('',#1503,#360);
#237=LINE('',#1504,#361);
#238=LINE('',#1506,#362);
#239=LINE('',#1509,#363);
#240=LINE('',#1510,#364);
#241=LINE('',#1513,#365);
#242=LINE('',#1514,#366);
#243=LINE('',#1517,#367);
#244=LINE('',#1518,#368);
#245=LINE('',#1520,#369);
#246=LINE('',#1521,#370);
#247=LINE('',#1524,#371);
#248=LINE('',#1526,#372);
#249=VECTOR('',#1028,10.);
#250=VECTOR('',#1029,10.);
#251=VECTOR('',#1030,10.);
#252=VECTOR('',#1031,10.);
#253=VECTOR('',#1034,10.);
#254=VECTOR('',#1035,10.);
#255=VECTOR('',#1036,10.);
#256=VECTOR('',#1039,10.);
#257=VECTOR('',#1040,10.);
#258=VECTOR('',#1041,10.);
#259=VECTOR('',#1044,10.);
#260=VECTOR('',#1045,10.);
#261=VECTOR('',#1046,10.);
#262=VECTOR('',#1047,10.);
#263=VECTOR('',#1050,10.);
#264=VECTOR('',#1051,10.);
#265=VECTOR('',#1052,10.);
#266=VECTOR('',#1053,10.);
#267=VECTOR('',#1056,10.);
#268=VECTOR('',#1057,10.);
#269=VECTOR('',#1060,10.);
#270=VECTOR('',#1061,10.);
#271=VECTOR('',#1062,10.);
#272=VECTOR('',#1063,10.);
#273=VECTOR('',#1064,10.);
#274=VECTOR('',#1065,10.);
#275=VECTOR('',#1066,10.);
#276=VECTOR('',#1067,10.);
#277=VECTOR('',#1068,10.);
#278=VECTOR('',#1069,10.);
#279=VECTOR('',#1070,10.);
#280=VECTOR('',#1071,10.);
#281=VECTOR('',#1072,10.);
#282=VECTOR('',#1073,10.);
#283=VECTOR('',#1076,10.);
#284=VECTOR('',#1077,10.);
#285=VECTOR('',#1080,10.);
#286=VECTOR('',#1083,10.);
#287=VECTOR('',#1084,10.);
#288=VECTOR('',#1085,10.);
#289=VECTOR('',#1086,10.);
#290=VECTOR('',#1087,10.);
#291=VECTOR('',#1088,10.);
#292=VECTOR('',#1089,10.);
#293=VECTOR('',#1090,10.);
#294=VECTOR('',#1091,10.);
#295=VECTOR('',#1092,10.);
#296=VECTOR('',#1093,10.);
#297=VECTOR('',#1094,10.);
#298=VECTOR('',#1097,10.);
#299=VECTOR('',#1098,10.);
#300=VECTOR('',#1099,10.);
#301=VECTOR('',#1100,10.);
#302=VECTOR('',#1103,10.);
#303=VECTOR('',#1104,10.);
#304=VECTOR('',#1105,10.);
#305=VECTOR('',#1108,10.);
#306=VECTOR('',#1109,10.);
#307=VECTOR('',#1110,10.);
#308=VECTOR('',#1115,10.);
#309=VECTOR('',#1116,10.);
#310=VECTOR('',#1117,10.);
#311=VECTOR('',#1118,10.);
#312=VECTOR('',#1121,10.);
#313=VECTOR('',#1122,10.);
#314=VECTOR('',#1123,10.);
#315=VECTOR('',#1126,10.);
#316=VECTOR('',#1129,10.);
#317=VECTOR('',#1132,10.);
#318=VECTOR('',#1133,10.);
#319=VECTOR('',#1134,10.);
#320=VECTOR('',#1135,10.);
#321=VECTOR('',#1138,10.);
#322=VECTOR('',#1139,10.);
#323=VECTOR('',#1140,10.);
#324=VECTOR('',#1143,10.);
#325=VECTOR('',#1146,10.);
#326=VECTOR('',#1147,10.);
#327=VECTOR('',#1150,10.);
#328=VECTOR('',#1151,10.);
#329=VECTOR('',#1152,10.);
#330=VECTOR('',#1153,10.);
#331=VECTOR('',#1156,10.);
#332=VECTOR('',#1157,10.);
#333=VECTOR('',#1158,10.);
#334=VECTOR('',#1161,10.);
#335=VECTOR('',#1162,10.);
#336=VECTOR('',#1167,10.);
#337=VECTOR('',#1168,10.);
#338=VECTOR('',#1169,10.);
#339=VECTOR('',#1170,10.);
#340=VECTOR('',#1173,10.);
#341=VECTOR('',#1178,10.);
#342=VECTOR('',#1183,10.);
#343=VECTOR('',#1186,10.);
#344=VECTOR('',#1187,10.);
#345=VECTOR('',#1190,10.);
#346=VECTOR('',#1191,10.);
#347=VECTOR('',#1194,10.);
#348=VECTOR('',#1207,10.);
#349=VECTOR('',#1208,10.);
#350=VECTOR('',#1209,10.);
#351=VECTOR('',#1212,10.);
#352=VECTOR('',#1213,10.);
#353=VECTOR('',#1214,10.);
#354=VECTOR('',#1217,10.);
#355=VECTOR('',#1220,10.);
#356=VECTOR('',#1221,10.);
#357=VECTOR('',#1224,10.);
#358=VECTOR('',#1225,10.);
#359=VECTOR('',#1226,10.);
#360=VECTOR('',#1229,10.);
#361=VECTOR('',#1230,10.);
#362=VECTOR('',#1233,10.);
#363=VECTOR('',#1236,10.);
#364=VECTOR('',#1237,10.);
#365=VECTOR('',#1240,10.);
#366=VECTOR('',#1241,10.);
#367=VECTOR('',#1244,10.);
#368=VECTOR('',#1245,10.);
#369=VECTOR('',#1248,10.);
#370=VECTOR('',#1249,10.);
#371=VECTOR('',#1254,10.);
#372=VECTOR('',#1257,10.);
#373=VERTEX_POINT('',#1264);
#374=VERTEX_POINT('',#1265);
#375=VERTEX_POINT('',#1267);
#376=VERTEX_POINT('',#1269);
#377=VERTEX_POINT('',#1273);
#378=VERTEX_POINT('',#1275);
#379=VERTEX_POINT('',#1279);
#380=VERTEX_POINT('',#1281);
#381=VERTEX_POINT('',#1285);
#382=VERTEX_POINT('',#1286);
#383=VERTEX_POINT('',#1288);
#384=VERTEX_POINT('',#1290);
#385=VERTEX_POINT('',#1294);
#386=VERTEX_POINT('',#1295);
#387=VERTEX_POINT('',#1297);
#388=VERTEX_POINT('',#1299);
#389=VERTEX_POINT('',#1307);
#390=VERTEX_POINT('',#1309);
#391=VERTEX_POINT('',#1311);
#392=VERTEX_POINT('',#1313);
#393=VERTEX_POINT('',#1315);
#394=VERTEX_POINT('',#1317);
#395=VERTEX_POINT('',#1319);
#396=VERTEX_POINT('',#1321);
#397=VERTEX_POINT('',#1323);
#398=VERTEX_POINT('',#1325);
#399=VERTEX_POINT('',#1327);
#400=VERTEX_POINT('',#1329);
#401=VERTEX_POINT('',#1333);
#402=VERTEX_POINT('',#1339);
#403=VERTEX_POINT('',#1340);
#404=VERTEX_POINT('',#1342);
#405=VERTEX_POINT('',#1344);
#406=VERTEX_POINT('',#1346);
#407=VERTEX_POINT('',#1348);
#408=VERTEX_POINT('',#1350);
#409=VERTEX_POINT('',#1352);
#410=VERTEX_POINT('',#1354);
#411=VERTEX_POINT('',#1356);
#412=VERTEX_POINT('',#1358);
#413=VERTEX_POINT('',#1360);
#414=VERTEX_POINT('',#1364);
#415=VERTEX_POINT('',#1365);
#416=VERTEX_POINT('',#1367);
#417=VERTEX_POINT('',#1369);
#418=VERTEX_POINT('',#1373);
#419=VERTEX_POINT('',#1375);
#420=VERTEX_POINT('',#1379);
#421=VERTEX_POINT('',#1381);
#422=VERTEX_POINT('',#1386);
#423=VERTEX_POINT('',#1387);
#424=VERTEX_POINT('',#1389);
#425=VERTEX_POINT('',#1391);
#426=VERTEX_POINT('',#1395);
#427=VERTEX_POINT('',#1397);
#428=VERTEX_POINT('',#1401);
#429=VERTEX_POINT('',#1406);
#430=VERTEX_POINT('',#1407);
#431=VERTEX_POINT('',#1409);
#432=VERTEX_POINT('',#1411);
#433=VERTEX_POINT('',#1415);
#434=VERTEX_POINT('',#1417);
#435=VERTEX_POINT('',#1421);
#436=VERTEX_POINT('',#1424);
#437=VERTEX_POINT('',#1428);
#438=VERTEX_POINT('',#1429);
#439=VERTEX_POINT('',#1431);
#440=VERTEX_POINT('',#1433);
#441=VERTEX_POINT('',#1437);
#442=VERTEX_POINT('',#1439);
#443=VERTEX_POINT('',#1443);
#444=VERTEX_POINT('',#1453);
#445=VERTEX_POINT('',#1457);
#446=VERTEX_POINT('',#1463);
#447=VERTEX_POINT('',#1467);
#448=VERTEX_POINT('',#1478);
#449=VERTEX_POINT('',#1480);
#450=VERTEX_POINT('',#1484);
#451=VERTEX_POINT('',#1486);
#452=VERTEX_POINT('',#1492);
#453=VERTEX_POINT('',#1496);
#454=VERTEX_POINT('',#1498);
#455=VERTEX_POINT('',#1502);
#456=VERTEX_POINT('',#1508);
#457=VERTEX_POINT('',#1512);
#458=VERTEX_POINT('',#1516);
#459=EDGE_CURVE('',#373,#374,#125,.T.);
#460=EDGE_CURVE('',#375,#373,#126,.T.);
#461=EDGE_CURVE('',#376,#375,#127,.T.);
#462=EDGE_CURVE('',#376,#374,#128,.T.);
#463=EDGE_CURVE('',#374,#377,#129,.T.);
#464=EDGE_CURVE('',#378,#376,#130,.T.);
#465=EDGE_CURVE('',#377,#378,#131,.T.);
#466=EDGE_CURVE('',#379,#373,#132,.T.);
#467=EDGE_CURVE('',#380,#379,#133,.T.);
#468=EDGE_CURVE('',#375,#380,#134,.T.);
#469=EDGE_CURVE('',#381,#382,#135,.T.);
#470=EDGE_CURVE('',#383,#381,#136,.T.);
#471=EDGE_CURVE('',#384,#383,#137,.T.);
#472=EDGE_CURVE('',#384,#382,#138,.T.);
#473=EDGE_CURVE('',#385,#386,#139,.T.);
#474=EDGE_CURVE('',#387,#385,#140,.T.);
#475=EDGE_CURVE('',#388,#387,#141,.T.);
#476=EDGE_CURVE('',#386,#388,#142,.T.);
#477=EDGE_CURVE('',#382,#385,#143,.T.);
#478=EDGE_CURVE('',#387,#384,#144,.T.);
#479=EDGE_CURVE('',#381,#377,#145,.T.);
#480=EDGE_CURVE('',#389,#386,#146,.T.);
#481=EDGE_CURVE('',#390,#389,#147,.T.);
#482=EDGE_CURVE('',#391,#390,#148,.T.);
#483=EDGE_CURVE('',#391,#392,#149,.T.);
#484=EDGE_CURVE('',#393,#392,#150,.T.);
#485=EDGE_CURVE('',#394,#393,#151,.T.);
#486=EDGE_CURVE('',#395,#394,#152,.T.);
#487=EDGE_CURVE('',#396,#395,#153,.T.);
#488=EDGE_CURVE('',#397,#396,#154,.T.);
#489=EDGE_CURVE('',#398,#397,#155,.T.);
#490=EDGE_CURVE('',#399,#398,#156,.T.);
#491=EDGE_CURVE('',#399,#400,#157,.T.);
#492=EDGE_CURVE('',#379,#400,#158,.T.);
#493=EDGE_CURVE('',#388,#401,#159,.T.);
#494=EDGE_CURVE('',#401,#389,#160,.T.);
#495=EDGE_CURVE('',#378,#383,#161,.T.);
#496=EDGE_CURVE('',#402,#403,#162,.T.);
#497=EDGE_CURVE('',#404,#402,#163,.T.);
#498=EDGE_CURVE('',#405,#404,#164,.T.);
#499=EDGE_CURVE('',#406,#405,#165,.T.);
#500=EDGE_CURVE('',#406,#407,#166,.T.);
#501=EDGE_CURVE('',#408,#407,#167,.T.);
#502=EDGE_CURVE('',#409,#408,#168,.T.);
#503=EDGE_CURVE('',#410,#409,#169,.T.);
#504=EDGE_CURVE('',#410,#411,#170,.T.);
#505=EDGE_CURVE('',#412,#411,#171,.T.);
#506=EDGE_CURVE('',#413,#412,#172,.T.);
#507=EDGE_CURVE('',#403,#413,#173,.T.);
#508=EDGE_CURVE('',#414,#415,#174,.T.);
#509=EDGE_CURVE('',#414,#416,#175,.T.);
#510=EDGE_CURVE('',#417,#416,#176,.T.);
#511=EDGE_CURVE('',#415,#417,#177,.T.);
#512=EDGE_CURVE('',#415,#418,#178,.T.);
#513=EDGE_CURVE('',#419,#417,#179,.T.);
#514=EDGE_CURVE('',#418,#419,#180,.T.);
#515=EDGE_CURVE('',#420,#419,#181,.T.);
#516=EDGE_CURVE('',#416,#421,#182,.T.);
#517=EDGE_CURVE('',#421,#404,#183,.T.);
#518=EDGE_CURVE('',#420,#402,#25,.T.);
#519=EDGE_CURVE('',#422,#423,#184,.T.);
#520=EDGE_CURVE('',#422,#424,#185,.T.);
#521=EDGE_CURVE('',#425,#424,#186,.T.);
#522=EDGE_CURVE('',#423,#425,#187,.T.);
#523=EDGE_CURVE('',#423,#426,#188,.T.);
#524=EDGE_CURVE('',#427,#425,#189,.T.);
#525=EDGE_CURVE('',#426,#427,#190,.T.);
#526=EDGE_CURVE('',#428,#427,#191,.T.);
#527=EDGE_CURVE('',#393,#424,#26,.T.);
#528=EDGE_CURVE('',#392,#428,#192,.T.);
#529=EDGE_CURVE('',#429,#430,#193,.T.);
#530=EDGE_CURVE('',#429,#431,#194,.T.);
#531=EDGE_CURVE('',#432,#431,#195,.T.);
#532=EDGE_CURVE('',#430,#432,#196,.T.);
#533=EDGE_CURVE('',#430,#433,#197,.T.);
#534=EDGE_CURVE('',#434,#432,#198,.T.);
#535=EDGE_CURVE('',#433,#434,#199,.T.);
#536=EDGE_CURVE('',#431,#435,#200,.T.);
#537=EDGE_CURVE('',#412,#435,#27,.T.);
#538=EDGE_CURVE('',#411,#436,#201,.T.);
#539=EDGE_CURVE('',#436,#434,#202,.T.);
#540=EDGE_CURVE('',#437,#438,#203,.T.);
#541=EDGE_CURVE('',#437,#439,#204,.T.);
#542=EDGE_CURVE('',#440,#439,#205,.T.);
#543=EDGE_CURVE('',#438,#440,#206,.T.);
#544=EDGE_CURVE('',#438,#441,#207,.T.);
#545=EDGE_CURVE('',#442,#440,#208,.T.);
#546=EDGE_CURVE('',#441,#442,#209,.T.);
#547=EDGE_CURVE('',#439,#443,#210,.T.);
#548=EDGE_CURVE('',#443,#397,#211,.T.);
#549=EDGE_CURVE('',#442,#396,#28,.T.);
#550=EDGE_CURVE('',#418,#422,#212,.T.);
#551=EDGE_CURVE('',#426,#437,#213,.T.);
#552=EDGE_CURVE('',#441,#429,#214,.T.);
#553=EDGE_CURVE('',#433,#414,#215,.T.);
#554=EDGE_CURVE('',#444,#420,#216,.T.);
#555=EDGE_CURVE('',#403,#444,#15,.T.);
#556=EDGE_CURVE('',#445,#444,#217,.T.);
#557=EDGE_CURVE('',#413,#445,#16,.T.);
#558=EDGE_CURVE('',#435,#445,#218,.T.);
#559=EDGE_CURVE('',#444,#446,#219,.T.);
#560=EDGE_CURVE('',#422,#446,#220,.T.);
#561=EDGE_CURVE('',#447,#445,#221,.T.);
#562=EDGE_CURVE('',#446,#447,#222,.T.);
#563=EDGE_CURVE('',#447,#441,#223,.T.);
#564=EDGE_CURVE('',#395,#447,#17,.T.);
#565=EDGE_CURVE('',#394,#446,#18,.T.);
#566=EDGE_CURVE('',#448,#406,#224,.T.);
#567=EDGE_CURVE('',#448,#449,#225,.T.);
#568=EDGE_CURVE('',#407,#449,#226,.T.);
#569=EDGE_CURVE('',#409,#450,#227,.T.);
#570=EDGE_CURVE('',#451,#408,#228,.T.);
#571=EDGE_CURVE('',#450,#451,#229,.T.);
#572=EDGE_CURVE('',#449,#451,#230,.T.);
#573=EDGE_CURVE('',#450,#452,#231,.T.);
#574=EDGE_CURVE('',#452,#410,#232,.T.);
#575=EDGE_CURVE('',#453,#399,#233,.T.);
#576=EDGE_CURVE('',#453,#454,#234,.T.);
#577=EDGE_CURVE('',#400,#454,#235,.T.);
#578=EDGE_CURVE('',#390,#455,#236,.T.);
#579=EDGE_CURVE('',#455,#401,#237,.T.);
#580=EDGE_CURVE('',#454,#380,#238,.T.);
#581=EDGE_CURVE('',#455,#456,#239,.T.);
#582=EDGE_CURVE('',#456,#391,#240,.T.);
#583=EDGE_CURVE('',#398,#457,#241,.T.);
#584=EDGE_CURVE('',#457,#453,#242,.T.);
#585=EDGE_CURVE('',#405,#458,#243,.T.);
#586=EDGE_CURVE('',#458,#448,#244,.T.);
#587=EDGE_CURVE('',#443,#457,#245,.T.);
#588=EDGE_CURVE('',#456,#428,#246,.T.);
#589=EDGE_CURVE('',#458,#421,#247,.T.);
#590=EDGE_CURVE('',#452,#436,#248,.T.);
#591=ORIENTED_EDGE('',*,*,#459,.F.);
#592=ORIENTED_EDGE('',*,*,#460,.F.);
#593=ORIENTED_EDGE('',*,*,#461,.F.);
#594=ORIENTED_EDGE('',*,*,#462,.T.);
#595=ORIENTED_EDGE('',*,*,#463,.F.);
#596=ORIENTED_EDGE('',*,*,#462,.F.);
#597=ORIENTED_EDGE('',*,*,#464,.F.);
#598=ORIENTED_EDGE('',*,*,#465,.F.);
#599=ORIENTED_EDGE('',*,*,#466,.F.);
#600=ORIENTED_EDGE('',*,*,#467,.F.);
#601=ORIENTED_EDGE('',*,*,#468,.F.);
#602=ORIENTED_EDGE('',*,*,#460,.T.);
#603=ORIENTED_EDGE('',*,*,#469,.F.);
#604=ORIENTED_EDGE('',*,*,#470,.F.);
#605=ORIENTED_EDGE('',*,*,#471,.F.);
#606=ORIENTED_EDGE('',*,*,#472,.T.);
#607=ORIENTED_EDGE('',*,*,#473,.F.);
#608=ORIENTED_EDGE('',*,*,#474,.F.);
#609=ORIENTED_EDGE('',*,*,#475,.F.);
#610=ORIENTED_EDGE('',*,*,#476,.F.);
#611=ORIENTED_EDGE('',*,*,#477,.F.);
#612=ORIENTED_EDGE('',*,*,#472,.F.);
#613=ORIENTED_EDGE('',*,*,#478,.F.);
#614=ORIENTED_EDGE('',*,*,#474,.T.);
#615=ORIENTED_EDGE('',*,*,#466,.T.);
#616=ORIENTED_EDGE('',*,*,#459,.T.);
#617=ORIENTED_EDGE('',*,*,#463,.T.);
#618=ORIENTED_EDGE('',*,*,#479,.F.);
#619=ORIENTED_EDGE('',*,*,#469,.T.);
#620=ORIENTED_EDGE('',*,*,#477,.T.);
#621=ORIENTED_EDGE('',*,*,#473,.T.);
#622=ORIENTED_EDGE('',*,*,#480,.F.);
#623=ORIENTED_EDGE('',*,*,#481,.F.);
#624=ORIENTED_EDGE('',*,*,#482,.F.);
#625=ORIENTED_EDGE('',*,*,#483,.T.);
#626=ORIENTED_EDGE('',*,*,#484,.F.);
#627=ORIENTED_EDGE('',*,*,#485,.F.);
#628=ORIENTED_EDGE('',*,*,#486,.F.);
#629=ORIENTED_EDGE('',*,*,#487,.F.);
#630=ORIENTED_EDGE('',*,*,#488,.F.);
#631=ORIENTED_EDGE('',*,*,#489,.F.);
#632=ORIENTED_EDGE('',*,*,#490,.F.);
#633=ORIENTED_EDGE('',*,*,#491,.T.);
#634=ORIENTED_EDGE('',*,*,#492,.F.);
#635=ORIENTED_EDGE('',*,*,#476,.T.);
#636=ORIENTED_EDGE('',*,*,#493,.T.);
#637=ORIENTED_EDGE('',*,*,#494,.T.);
#638=ORIENTED_EDGE('',*,*,#480,.T.);
#639=ORIENTED_EDGE('',*,*,#465,.T.);
#640=ORIENTED_EDGE('',*,*,#495,.T.);
#641=ORIENTED_EDGE('',*,*,#470,.T.);
#642=ORIENTED_EDGE('',*,*,#479,.T.);
#643=ORIENTED_EDGE('',*,*,#496,.F.);
#644=ORIENTED_EDGE('',*,*,#497,.F.);
#645=ORIENTED_EDGE('',*,*,#498,.F.);
#646=ORIENTED_EDGE('',*,*,#499,.F.);
#647=ORIENTED_EDGE('',*,*,#500,.T.);
#648=ORIENTED_EDGE('',*,*,#501,.F.);
#649=ORIENTED_EDGE('',*,*,#502,.F.);
#650=ORIENTED_EDGE('',*,*,#503,.F.);
#651=ORIENTED_EDGE('',*,*,#504,.T.);
#652=ORIENTED_EDGE('',*,*,#505,.F.);
#653=ORIENTED_EDGE('',*,*,#506,.F.);
#654=ORIENTED_EDGE('',*,*,#507,.F.);
#655=ORIENTED_EDGE('',*,*,#508,.F.);
#656=ORIENTED_EDGE('',*,*,#509,.T.);
#657=ORIENTED_EDGE('',*,*,#510,.F.);
#658=ORIENTED_EDGE('',*,*,#511,.F.);
#659=ORIENTED_EDGE('',*,*,#512,.F.);
#660=ORIENTED_EDGE('',*,*,#511,.T.);
#661=ORIENTED_EDGE('',*,*,#513,.F.);
#662=ORIENTED_EDGE('',*,*,#514,.F.);
#663=ORIENTED_EDGE('',*,*,#515,.T.);
#664=ORIENTED_EDGE('',*,*,#513,.T.);
#665=ORIENTED_EDGE('',*,*,#510,.T.);
#666=ORIENTED_EDGE('',*,*,#516,.T.);
#667=ORIENTED_EDGE('',*,*,#517,.T.);
#668=ORIENTED_EDGE('',*,*,#497,.T.);
#669=ORIENTED_EDGE('',*,*,#518,.F.);
#670=ORIENTED_EDGE('',*,*,#519,.F.);
#671=ORIENTED_EDGE('',*,*,#520,.T.);
#672=ORIENTED_EDGE('',*,*,#521,.F.);
#673=ORIENTED_EDGE('',*,*,#522,.F.);
#674=ORIENTED_EDGE('',*,*,#523,.F.);
#675=ORIENTED_EDGE('',*,*,#522,.T.);
#676=ORIENTED_EDGE('',*,*,#524,.F.);
#677=ORIENTED_EDGE('',*,*,#525,.F.);
#678=ORIENTED_EDGE('',*,*,#526,.T.);
#679=ORIENTED_EDGE('',*,*,#524,.T.);
#680=ORIENTED_EDGE('',*,*,#521,.T.);
#681=ORIENTED_EDGE('',*,*,#527,.F.);
#682=ORIENTED_EDGE('',*,*,#484,.T.);
#683=ORIENTED_EDGE('',*,*,#528,.T.);
#684=ORIENTED_EDGE('',*,*,#529,.F.);
#685=ORIENTED_EDGE('',*,*,#530,.T.);
#686=ORIENTED_EDGE('',*,*,#531,.F.);
#687=ORIENTED_EDGE('',*,*,#532,.F.);
#688=ORIENTED_EDGE('',*,*,#533,.F.);
#689=ORIENTED_EDGE('',*,*,#532,.T.);
#690=ORIENTED_EDGE('',*,*,#534,.F.);
#691=ORIENTED_EDGE('',*,*,#535,.F.);
#692=ORIENTED_EDGE('',*,*,#536,.T.);
#693=ORIENTED_EDGE('',*,*,#537,.F.);
#694=ORIENTED_EDGE('',*,*,#505,.T.);
#695=ORIENTED_EDGE('',*,*,#538,.T.);
#696=ORIENTED_EDGE('',*,*,#539,.T.);
#697=ORIENTED_EDGE('',*,*,#534,.T.);
#698=ORIENTED_EDGE('',*,*,#531,.T.);
#699=ORIENTED_EDGE('',*,*,#540,.F.);
#700=ORIENTED_EDGE('',*,*,#541,.T.);
#701=ORIENTED_EDGE('',*,*,#542,.F.);
#702=ORIENTED_EDGE('',*,*,#543,.F.);
#703=ORIENTED_EDGE('',*,*,#544,.F.);
#704=ORIENTED_EDGE('',*,*,#543,.T.);
#705=ORIENTED_EDGE('',*,*,#545,.F.);
#706=ORIENTED_EDGE('',*,*,#546,.F.);
#707=ORIENTED_EDGE('',*,*,#545,.T.);
#708=ORIENTED_EDGE('',*,*,#542,.T.);
#709=ORIENTED_EDGE('',*,*,#547,.T.);
#710=ORIENTED_EDGE('',*,*,#548,.T.);
#711=ORIENTED_EDGE('',*,*,#488,.T.);
#712=ORIENTED_EDGE('',*,*,#549,.F.);
#713=ORIENTED_EDGE('',*,*,#508,.T.);
#714=ORIENTED_EDGE('',*,*,#512,.T.);
#715=ORIENTED_EDGE('',*,*,#550,.T.);
#716=ORIENTED_EDGE('',*,*,#519,.T.);
#717=ORIENTED_EDGE('',*,*,#523,.T.);
#718=ORIENTED_EDGE('',*,*,#551,.T.);
#719=ORIENTED_EDGE('',*,*,#540,.T.);
#720=ORIENTED_EDGE('',*,*,#544,.T.);
#721=ORIENTED_EDGE('',*,*,#552,.T.);
#722=ORIENTED_EDGE('',*,*,#529,.T.);
#723=ORIENTED_EDGE('',*,*,#533,.T.);
#724=ORIENTED_EDGE('',*,*,#553,.T.);
#725=ORIENTED_EDGE('',*,*,#554,.T.);
#726=ORIENTED_EDGE('',*,*,#518,.T.);
#727=ORIENTED_EDGE('',*,*,#496,.T.);
#728=ORIENTED_EDGE('',*,*,#555,.T.);
#729=ORIENTED_EDGE('',*,*,#556,.T.);
#730=ORIENTED_EDGE('',*,*,#555,.F.);
#731=ORIENTED_EDGE('',*,*,#507,.T.);
#732=ORIENTED_EDGE('',*,*,#557,.T.);
#733=ORIENTED_EDGE('',*,*,#506,.T.);
#734=ORIENTED_EDGE('',*,*,#537,.T.);
#735=ORIENTED_EDGE('',*,*,#558,.T.);
#736=ORIENTED_EDGE('',*,*,#557,.F.);
#737=ORIENTED_EDGE('',*,*,#554,.F.);
#738=ORIENTED_EDGE('',*,*,#559,.T.);
#739=ORIENTED_EDGE('',*,*,#560,.F.);
#740=ORIENTED_EDGE('',*,*,#550,.F.);
#741=ORIENTED_EDGE('',*,*,#514,.T.);
#742=ORIENTED_EDGE('',*,*,#515,.F.);
#743=ORIENTED_EDGE('',*,*,#556,.F.);
#744=ORIENTED_EDGE('',*,*,#561,.F.);
#745=ORIENTED_EDGE('',*,*,#562,.F.);
#746=ORIENTED_EDGE('',*,*,#559,.F.);
#747=ORIENTED_EDGE('',*,*,#558,.F.);
#748=ORIENTED_EDGE('',*,*,#536,.F.);
#749=ORIENTED_EDGE('',*,*,#530,.F.);
#750=ORIENTED_EDGE('',*,*,#552,.F.);
#751=ORIENTED_EDGE('',*,*,#563,.F.);
#752=ORIENTED_EDGE('',*,*,#561,.T.);
#753=ORIENTED_EDGE('',*,*,#563,.T.);
#754=ORIENTED_EDGE('',*,*,#546,.T.);
#755=ORIENTED_EDGE('',*,*,#549,.T.);
#756=ORIENTED_EDGE('',*,*,#487,.T.);
#757=ORIENTED_EDGE('',*,*,#564,.T.);
#758=ORIENTED_EDGE('',*,*,#562,.T.);
#759=ORIENTED_EDGE('',*,*,#564,.F.);
#760=ORIENTED_EDGE('',*,*,#486,.T.);
#761=ORIENTED_EDGE('',*,*,#565,.T.);
#762=ORIENTED_EDGE('',*,*,#485,.T.);
#763=ORIENTED_EDGE('',*,*,#527,.T.);
#764=ORIENTED_EDGE('',*,*,#520,.F.);
#765=ORIENTED_EDGE('',*,*,#560,.T.);
#766=ORIENTED_EDGE('',*,*,#565,.F.);
#767=ORIENTED_EDGE('',*,*,#566,.F.);
#768=ORIENTED_EDGE('',*,*,#567,.T.);
#769=ORIENTED_EDGE('',*,*,#568,.F.);
#770=ORIENTED_EDGE('',*,*,#500,.F.);
#771=ORIENTED_EDGE('',*,*,#569,.F.);
#772=ORIENTED_EDGE('',*,*,#502,.T.);
#773=ORIENTED_EDGE('',*,*,#570,.F.);
#774=ORIENTED_EDGE('',*,*,#571,.F.);
#775=ORIENTED_EDGE('',*,*,#570,.T.);
#776=ORIENTED_EDGE('',*,*,#501,.T.);
#777=ORIENTED_EDGE('',*,*,#568,.T.);
#778=ORIENTED_EDGE('',*,*,#572,.T.);
#779=ORIENTED_EDGE('',*,*,#569,.T.);
#780=ORIENTED_EDGE('',*,*,#573,.T.);
#781=ORIENTED_EDGE('',*,*,#574,.T.);
#782=ORIENTED_EDGE('',*,*,#503,.T.);
#783=ORIENTED_EDGE('',*,*,#575,.F.);
#784=ORIENTED_EDGE('',*,*,#576,.T.);
#785=ORIENTED_EDGE('',*,*,#577,.F.);
#786=ORIENTED_EDGE('',*,*,#491,.F.);
#787=ORIENTED_EDGE('',*,*,#578,.F.);
#788=ORIENTED_EDGE('',*,*,#481,.T.);
#789=ORIENTED_EDGE('',*,*,#494,.F.);
#790=ORIENTED_EDGE('',*,*,#579,.F.);
#791=ORIENTED_EDGE('',*,*,#467,.T.);
#792=ORIENTED_EDGE('',*,*,#492,.T.);
#793=ORIENTED_EDGE('',*,*,#577,.T.);
#794=ORIENTED_EDGE('',*,*,#580,.T.);
#795=ORIENTED_EDGE('',*,*,#578,.T.);
#796=ORIENTED_EDGE('',*,*,#581,.T.);
#797=ORIENTED_EDGE('',*,*,#582,.T.);
#798=ORIENTED_EDGE('',*,*,#482,.T.);
#799=ORIENTED_EDGE('',*,*,#575,.T.);
#800=ORIENTED_EDGE('',*,*,#490,.T.);
#801=ORIENTED_EDGE('',*,*,#583,.T.);
#802=ORIENTED_EDGE('',*,*,#584,.T.);
#803=ORIENTED_EDGE('',*,*,#566,.T.);
#804=ORIENTED_EDGE('',*,*,#499,.T.);
#805=ORIENTED_EDGE('',*,*,#585,.T.);
#806=ORIENTED_EDGE('',*,*,#586,.T.);
#807=ORIENTED_EDGE('',*,*,#468,.T.);
#808=ORIENTED_EDGE('',*,*,#580,.F.);
#809=ORIENTED_EDGE('',*,*,#576,.F.);
#810=ORIENTED_EDGE('',*,*,#584,.F.);
#811=ORIENTED_EDGE('',*,*,#587,.F.);
#812=ORIENTED_EDGE('',*,*,#547,.F.);
#813=ORIENTED_EDGE('',*,*,#541,.F.);
#814=ORIENTED_EDGE('',*,*,#551,.F.);
#815=ORIENTED_EDGE('',*,*,#525,.T.);
#816=ORIENTED_EDGE('',*,*,#526,.F.);
#817=ORIENTED_EDGE('',*,*,#588,.F.);
#818=ORIENTED_EDGE('',*,*,#581,.F.);
#819=ORIENTED_EDGE('',*,*,#579,.T.);
#820=ORIENTED_EDGE('',*,*,#493,.F.);
#821=ORIENTED_EDGE('',*,*,#475,.T.);
#822=ORIENTED_EDGE('',*,*,#478,.T.);
#823=ORIENTED_EDGE('',*,*,#471,.T.);
#824=ORIENTED_EDGE('',*,*,#495,.F.);
#825=ORIENTED_EDGE('',*,*,#464,.T.);
#826=ORIENTED_EDGE('',*,*,#461,.T.);
#827=ORIENTED_EDGE('',*,*,#588,.T.);
#828=ORIENTED_EDGE('',*,*,#528,.F.);
#829=ORIENTED_EDGE('',*,*,#483,.F.);
#830=ORIENTED_EDGE('',*,*,#582,.F.);
#831=ORIENTED_EDGE('',*,*,#498,.T.);
#832=ORIENTED_EDGE('',*,*,#517,.F.);
#833=ORIENTED_EDGE('',*,*,#589,.F.);
#834=ORIENTED_EDGE('',*,*,#585,.F.);
#835=ORIENTED_EDGE('',*,*,#589,.T.);
#836=ORIENTED_EDGE('',*,*,#516,.F.);
#837=ORIENTED_EDGE('',*,*,#509,.F.);
#838=ORIENTED_EDGE('',*,*,#553,.F.);
#839=ORIENTED_EDGE('',*,*,#535,.T.);
#840=ORIENTED_EDGE('',*,*,#539,.F.);
#841=ORIENTED_EDGE('',*,*,#590,.F.);
#842=ORIENTED_EDGE('',*,*,#573,.F.);
#843=ORIENTED_EDGE('',*,*,#571,.T.);
#844=ORIENTED_EDGE('',*,*,#572,.F.);
#845=ORIENTED_EDGE('',*,*,#567,.F.);
#846=ORIENTED_EDGE('',*,*,#586,.F.);
#847=ORIENTED_EDGE('',*,*,#590,.T.);
#848=ORIENTED_EDGE('',*,*,#538,.F.);
#849=ORIENTED_EDGE('',*,*,#504,.F.);
#850=ORIENTED_EDGE('',*,*,#574,.F.);
#851=ORIENTED_EDGE('',*,*,#489,.T.);
#852=ORIENTED_EDGE('',*,*,#548,.F.);
#853=ORIENTED_EDGE('',*,*,#587,.T.);
#854=ORIENTED_EDGE('',*,*,#583,.F.);
#855=PLANE('',#968);
#856=PLANE('',#969);
#857=PLANE('',#970);
#858=PLANE('',#971);
#859=PLANE('',#972);
#860=PLANE('',#973);
#861=PLANE('',#974);
#862=PLANE('',#975);
#863=PLANE('',#976);
#864=PLANE('',#977);
#865=PLANE('',#978);
#866=PLANE('',#979);
#867=PLANE('',#980);
#868=PLANE('',#982);
#869=PLANE('',#983);
#870=PLANE('',#984);
#871=PLANE('',#986);
#872=PLANE('',#987);
#873=PLANE('',#988);
#874=PLANE('',#990);
#875=PLANE('',#991);
#876=PLANE('',#992);
#877=PLANE('',#994);
#878=PLANE('',#1000);
#879=PLANE('',#1001);
#880=PLANE('',#1002);
#881=PLANE('',#1008);
#882=PLANE('',#1009);
#883=PLANE('',#1010);
#884=PLANE('',#1011);
#885=PLANE('',#1012);
#886=PLANE('',#1013);
#887=PLANE('',#1014);
#888=PLANE('',#1015);
#889=PLANE('',#1016);
#890=PLANE('',#1017);
#891=PLANE('',#1018);
#892=PLANE('',#1019);
#893=PLANE('',#1020);
#894=PLANE('',#1021);
#895=PLANE('',#1022);
#896=PLANE('',#1023);
#897=ADVANCED_FACE('',(#29),#855,.F.);
#898=ADVANCED_FACE('',(#30),#856,.F.);
#899=ADVANCED_FACE('',(#31),#857,.F.);
#900=ADVANCED_FACE('',(#32),#858,.F.);
#901=ADVANCED_FACE('',(#33),#859,.F.);
#902=ADVANCED_FACE('',(#34),#860,.F.);
#903=ADVANCED_FACE('',(#35),#861,.T.);
#904=ADVANCED_FACE('',(#36),#862,.T.);
#905=ADVANCED_FACE('',(#37),#863,.T.);
#906=ADVANCED_FACE('',(#38),#864,.T.);
#907=ADVANCED_FACE('',(#39),#865,.T.);
#908=ADVANCED_FACE('',(#40),#866,.T.);
#909=ADVANCED_FACE('',(#41),#867,.T.);
#910=ADVANCED_FACE('',(#42),#868,.T.);
#911=ADVANCED_FACE('',(#43),#869,.T.);
#912=ADVANCED_FACE('',(#44),#870,.T.);
#913=ADVANCED_FACE('',(#45),#871,.T.);
#914=ADVANCED_FACE('',(#46),#872,.T.);
#915=ADVANCED_FACE('',(#47),#873,.T.);
#916=ADVANCED_FACE('',(#48),#874,.T.);
#917=ADVANCED_FACE('',(#49),#875,.T.);
#918=ADVANCED_FACE('',(#50),#876,.T.);
#919=ADVANCED_FACE('',(#51),#877,.T.);
#920=ADVANCED_FACE('',(#52),#19,.F.);
#921=ADVANCED_FACE('',(#53),#20,.F.);
#922=ADVANCED_FACE('',(#54),#21,.F.);
#923=ADVANCED_FACE('',(#55),#878,.T.);
#924=ADVANCED_FACE('',(#56),#879,.F.);
#925=ADVANCED_FACE('',(#57),#880,.T.);
#926=ADVANCED_FACE('',(#58),#22,.F.);
#927=ADVANCED_FACE('',(#59),#23,.F.);
#928=ADVANCED_FACE('',(#60),#24,.F.);
#929=ADVANCED_FACE('',(#61),#881,.T.);
#930=ADVANCED_FACE('',(#62),#882,.T.);
#931=ADVANCED_FACE('',(#63),#883,.T.);
#932=ADVANCED_FACE('',(#64),#884,.T.);
#933=ADVANCED_FACE('',(#65),#885,.T.);
#934=ADVANCED_FACE('',(#66),#886,.T.);
#935=ADVANCED_FACE('',(#67),#887,.T.);
#936=ADVANCED_FACE('',(#68),#888,.T.);
#937=ADVANCED_FACE('',(#69),#889,.T.);
#938=ADVANCED_FACE('',(#70),#890,.T.);
#939=ADVANCED_FACE('',(#71),#891,.T.);
#940=ADVANCED_FACE('',(#72),#892,.T.);
#941=ADVANCED_FACE('',(#73),#893,.T.);
#942=ADVANCED_FACE('',(#74),#894,.T.);
#943=ADVANCED_FACE('',(#75),#895,.T.);
#944=ADVANCED_FACE('',(#76),#896,.T.);
#945=CLOSED_SHELL('',(#897,#898,#899,#900,#901,#902,#903,#904,#905,#906,
#907,#908,#909,#910,#911,#912,#913,#914,#915,#916,#917,#918,#919,#920,#921,
#922,#923,#924,#925,#926,#927,#928,#929,#930,#931,#932,#933,#934,#935,#936,
#937,#938,#939,#940,#941,#942,#943,#944));
#946=DERIVED_UNIT_ELEMENT(#949,1.);
#947=DERIVED_UNIT_ELEMENT(#1534,-3.);
#948=DIMENSIONAL_EXPONENTS(0.,1.,0.,0.,0.,0.,0.);
#949=(
CONVERSION_BASED_UNIT('gram',#951)
MASS_UNIT()
NAMED_UNIT(#948)
);
#950=(
MASS_UNIT()
NAMED_UNIT(*)
SI_UNIT(.KILO.,.GRAM.)
);
#951=MASS_MEASURE_WITH_UNIT(MASS_MEASURE(0.001),#950);
#952=DERIVED_UNIT((#946,#947));
#953=MEASURE_REPRESENTATION_ITEM('density measure',
POSITIVE_RATIO_MEASURE(1.),#952);
#954=PROPERTY_DEFINITION_REPRESENTATION(#959,#956);
#955=PROPERTY_DEFINITION_REPRESENTATION(#960,#957);
#956=REPRESENTATION('material name',(#958),#1531);
#957=REPRESENTATION('density',(#953),#1531);
#958=DESCRIPTIVE_REPRESENTATION_ITEM('Generic','Generic');
#959=PROPERTY_DEFINITION('material property','material name',#1541);
#960=PROPERTY_DEFINITION('material property','density of part',#1541);
#961=DATE_TIME_ROLE('creation_date');
#962=APPLIED_DATE_AND_TIME_ASSIGNMENT(#963,#961,(#1541));
#963=DATE_AND_TIME(#964,#965);
#964=CALENDAR_DATE(2025,19,9);
#965=LOCAL_TIME(0,0,0.,#966);
#966=COORDINATED_UNIVERSAL_TIME_OFFSET(0,0,.BEHIND.);
#967=AXIS2_PLACEMENT_3D('',#1262,#1024,#1025);
#968=AXIS2_PLACEMENT_3D('',#1263,#1026,#1027);
#969=AXIS2_PLACEMENT_3D('',#1272,#1032,#1033);
#970=AXIS2_PLACEMENT_3D('',#1278,#1037,#1038);
#971=AXIS2_PLACEMENT_3D('',#1284,#1042,#1043);
#972=AXIS2_PLACEMENT_3D('',#1293,#1048,#1049);
#973=AXIS2_PLACEMENT_3D('',#1302,#1054,#1055);
#974=AXIS2_PLACEMENT_3D('',#1305,#1058,#1059);
#975=AXIS2_PLACEMENT_3D('',#1332,#1074,#1075);
#976=AXIS2_PLACEMENT_3D('',#1336,#1078,#1079);
#977=AXIS2_PLACEMENT_3D('',#1338,#1081,#1082);
#978=AXIS2_PLACEMENT_3D('',#1363,#1095,#1096);
#979=AXIS2_PLACEMENT_3D('',#1372,#1101,#1102);
#980=AXIS2_PLACEMENT_3D('',#1378,#1106,#1107);
#981=AXIS2_PLACEMENT_3D('',#1384,#1111,#1112);
#982=AXIS2_PLACEMENT_3D('',#1385,#1113,#1114);
#983=AXIS2_PLACEMENT_3D('',#1394,#1119,#1120);
#984=AXIS2_PLACEMENT_3D('',#1400,#1124,#1125);
#985=AXIS2_PLACEMENT_3D('',#1403,#1127,#1128);
#986=AXIS2_PLACEMENT_3D('',#1405,#1130,#1131);
#987=AXIS2_PLACEMENT_3D('',#1414,#1136,#1137);
#988=AXIS2_PLACEMENT_3D('',#1420,#1141,#1142);
#989=AXIS2_PLACEMENT_3D('',#1423,#1144,#1145);
#990=AXIS2_PLACEMENT_3D('',#1427,#1148,#1149);
#991=AXIS2_PLACEMENT_3D('',#1436,#1154,#1155);
#992=AXIS2_PLACEMENT_3D('',#1442,#1159,#1160);
#993=AXIS2_PLACEMENT_3D('',#1446,#1163,#1164);
#994=AXIS2_PLACEMENT_3D('',#1447,#1165,#1166);
#995=AXIS2_PLACEMENT_3D('',#1452,#1171,#1172);
#996=AXIS2_PLACEMENT_3D('',#1455,#1174,#1175);
#997=AXIS2_PLACEMENT_3D('',#1456,#1176,#1177);
#998=AXIS2_PLACEMENT_3D('',#1459,#1179,#1180);
#999=AXIS2_PLACEMENT_3D('',#1460,#1181,#1182);
#1000=AXIS2_PLACEMENT_3D('',#1462,#1184,#1185);
#1001=AXIS2_PLACEMENT_3D('',#1466,#1188,#1189);
#1002=AXIS2_PLACEMENT_3D('',#1470,#1192,#1193);
#1003=AXIS2_PLACEMENT_3D('',#1472,#1195,#1196);
#1004=AXIS2_PLACEMENT_3D('',#1473,#1197,#1198);
#1005=AXIS2_PLACEMENT_3D('',#1474,#1199,#1200);
#1006=AXIS2_PLACEMENT_3D('',#1475,#1201,#1202);
#1007=AXIS2_PLACEMENT_3D('',#1476,#1203,#1204);
#1008=AXIS2_PLACEMENT_3D('',#1477,#1205,#1206);
#1009=AXIS2_PLACEMENT_3D('',#1483,#1210,#1211);
#1010=AXIS2_PLACEMENT_3D('',#1489,#1215,#1216);
#1011=AXIS2_PLACEMENT_3D('',#1491,#1218,#1219);
#1012=AXIS2_PLACEMENT_3D('',#1495,#1222,#1223);
#1013=AXIS2_PLACEMENT_3D('',#1501,#1227,#1228);
#1014=AXIS2_PLACEMENT_3D('',#1505,#1231,#1232);
#1015=AXIS2_PLACEMENT_3D('',#1507,#1234,#1235);
#1016=AXIS2_PLACEMENT_3D('',#1511,#1238,#1239);
#1017=AXIS2_PLACEMENT_3D('',#1515,#1242,#1243);
#1018=AXIS2_PLACEMENT_3D('',#1519,#1246,#1247);
#1019=AXIS2_PLACEMENT_3D('',#1522,#1250,#1251);
#1020=AXIS2_PLACEMENT_3D('',#1523,#1252,#1253);
#1021=AXIS2_PLACEMENT_3D('',#1525,#1255,#1256);
#1022=AXIS2_PLACEMENT_3D('',#1527,#1258,#1259);
#1023=AXIS2_PLACEMENT_3D('',#1528,#1260,#1261);
#1024=DIRECTION('axis',(0.,0.,1.));
#1025=DIRECTION('refdir',(1.,0.,0.));
#1026=DIRECTION('center_axis',(0.,1.,0.));
#1027=DIRECTION('ref_axis',(0.,0.,1.));
#1028=DIRECTION('',(0.,0.,-1.));
#1029=DIRECTION('',(1.,0.,0.));
#1030=DIRECTION('',(0.,0.,1.));
#1031=DIRECTION('',(1.,0.,0.));
#1032=DIRECTION('center_axis',(0.,0.,-1.));
#1033=DIRECTION('ref_axis',(0.,1.,0.));
#1034=DIRECTION('',(0.,-1.,0.));
#1035=DIRECTION('',(0.,1.,0.));
#1036=DIRECTION('',(-1.,0.,0.));
#1037=DIRECTION('center_axis',(0.,0.,1.));
#1038=DIRECTION('ref_axis',(0.,-1.,0.));
#1039=DIRECTION('',(0.,1.,0.));
#1040=DIRECTION('',(1.,0.,0.));
#1041=DIRECTION('',(0.,-1.,0.));
#1042=DIRECTION('center_axis',(0.,0.,1.));
#1043=DIRECTION('ref_axis',(0.,-1.,0.));
#1044=DIRECTION('',(0.,1.,0.));
#1045=DIRECTION('',(1.,0.,0.));
#1046=DIRECTION('',(0.,-1.,0.));
#1047=DIRECTION('',(1.,0.,0.));
#1048=DIRECTION('center_axis',(0.,-2.96059473233375E-16,-1.));
#1049=DIRECTION('ref_axis',(0.,1.,-2.96059473233375E-16));
#1050=DIRECTION('',(0.,-1.,2.96059473233375E-16));
#1051=DIRECTION('',(1.,0.,0.));
#1052=DIRECTION('',(0.,1.,-2.96059473233375E-16));
#1053=DIRECTION('',(-1.,0.,0.));
#1054=DIRECTION('center_axis',(0.,1.,0.));
#1055=DIRECTION('ref_axis',(0.,0.,1.));
#1056=DIRECTION('',(0.,0.,-1.));
#1057=DIRECTION('',(0.,0.,1.));
#1058=DIRECTION('center_axis',(1.,0.,0.));
#1059=DIRECTION('ref_axis',(0.,0.,-1.));
#1060=DIRECTION('',(0.,0.,1.));
#1061=DIRECTION('',(0.,0.,1.));
#1062=DIRECTION('',(0.,-1.,0.));
#1063=DIRECTION('',(0.,0.,1.));
#1064=DIRECTION('',(0.,1.,0.));
#1065=DIRECTION('',(0.,0.,-1.));
#1066=DIRECTION('',(0.,1.,0.));
#1067=DIRECTION('',(0.,0.,-1.));
#1068=DIRECTION('',(0.,-1.,0.));
#1069=DIRECTION('',(0.,0.,-1.));
#1070=DIRECTION('',(0.,1.,0.));
#1071=DIRECTION('',(0.,0.,1.));
#1072=DIRECTION('',(0.,-1.,0.));
#1073=DIRECTION('',(0.,0.,1.));
#1074=DIRECTION('center_axis',(0.,-1.,0.));
#1075=DIRECTION('ref_axis',(0.,0.,-1.));
#1076=DIRECTION('',(0.,0.,-1.));
#1077=DIRECTION('',(1.,0.,0.));
#1078=DIRECTION('center_axis',(0.,-1.,0.));
#1079=DIRECTION('ref_axis',(0.,0.,-1.));
#1080=DIRECTION('',(0.,0.,-1.));
#1081=DIRECTION('center_axis',(-1.,0.,0.));
#1082=DIRECTION('ref_axis',(0.,0.,1.));
#1083=DIRECTION('',(0.,-1.,0.));
#1084=DIRECTION('',(0.,0.,1.));
#1085=DIRECTION('',(0.,1.,0.));
#1086=DIRECTION('',(1.85037170770859E-16,0.,-1.));
#1087=DIRECTION('',(0.,-1.,0.));
#1088=DIRECTION('',(1.85037170770859E-16,0.,-1.));
#1089=DIRECTION('',(0.,-1.,0.));
#1090=DIRECTION('',(1.85037170770859E-16,0.,-1.));
#1091=DIRECTION('',(0.,1.,0.));
#1092=DIRECTION('',(0.,0.,1.));
#1093=DIRECTION('',(0.,1.,0.));
#1094=DIRECTION('',(0.,0.,1.));
#1095=DIRECTION('center_axis',(0.,0.,1.));
#1096=DIRECTION('ref_axis',(1.,0.,0.));
#1097=DIRECTION('',(-1.,0.,0.));
#1098=DIRECTION('',(0.,1.,0.));
#1099=DIRECTION('',(1.,0.,0.));
#1100=DIRECTION('',(0.,1.,0.));
#1101=DIRECTION('center_axis',(-1.,0.,0.));
#1102=DIRECTION('ref_axis',(0.,0.,1.));
#1103=DIRECTION('',(0.,0.,-1.));
#1104=DIRECTION('',(0.,0.,1.));
#1105=DIRECTION('',(0.,1.,0.));
#1106=DIRECTION('center_axis',(0.,1.,0.));
#1107=DIRECTION('ref_axis',(0.,0.,1.));
#1108=DIRECTION('',(-1.,0.,0.));
#1109=DIRECTION('',(0.,0.,-1.));
#1110=DIRECTION('',(-1.,0.,0.));
#1111=DIRECTION('center_axis',(0.,1.,0.));
#1112=DIRECTION('ref_axis',(0.707106781186549,0.,0.707106781186546));
#1113=DIRECTION('center_axis',(1.,0.,0.));
#1114=DIRECTION('ref_axis',(0.,0.,-1.));
#1115=DIRECTION('',(0.,0.,1.));
#1116=DIRECTION('',(0.,1.,0.));
#1117=DIRECTION('',(0.,0.,-1.));
#1118=DIRECTION('',(0.,1.,0.));
#1119=DIRECTION('center_axis',(0.,0.,1.));
#1120=DIRECTION('ref_axis',(1.,0.,0.));
#1121=DIRECTION('',(-1.,0.,0.));
#1122=DIRECTION('',(1.,0.,0.));
#1123=DIRECTION('',(0.,1.,0.));
#1124=DIRECTION('center_axis',(0.,1.,0.));
#1125=DIRECTION('ref_axis',(0.,0.,1.));
#1126=DIRECTION('',(0.,0.,1.));
#1127=DIRECTION('center_axis',(0.,1.,0.));
#1128=DIRECTION('ref_axis',(-0.707106781186544,0.,0.707106781186551));
#1129=DIRECTION('',(-1.,0.,0.));
#1130=DIRECTION('center_axis',(-1.,0.,0.));
#1131=DIRECTION('ref_axis',(0.,0.,1.));
#1132=DIRECTION('',(0.,0.,-1.));
#1133=DIRECTION('',(0.,1.,0.));
#1134=DIRECTION('',(0.,0.,1.));
#1135=DIRECTION('',(0.,1.,0.));
#1136=DIRECTION('center_axis',(0.,0.,-1.));
#1137=DIRECTION('ref_axis',(-1.,0.,0.));
#1138=DIRECTION('',(1.,0.,0.));
#1139=DIRECTION('',(-1.,0.,0.));
#1140=DIRECTION('',(0.,1.,0.));
#1141=DIRECTION('center_axis',(0.,1.,0.));
#1142=DIRECTION('ref_axis',(0.,0.,1.));
#1143=DIRECTION('',(1.,0.,0.));
#1144=DIRECTION('center_axis',(0.,1.,0.));
#1145=DIRECTION('ref_axis',(0.707106781186548,0.,-0.707106781186548));
#1146=DIRECTION('',(1.,0.,4.93038065763132E-31));
#1147=DIRECTION('',(0.,0.,-1.));
#1148=DIRECTION('center_axis',(0.,0.,-1.));
#1149=DIRECTION('ref_axis',(-1.,0.,0.));
#1150=DIRECTION('',(1.,0.,0.));
#1151=DIRECTION('',(0.,1.,0.));
#1152=DIRECTION('',(-1.,0.,0.));
#1153=DIRECTION('',(0.,1.,0.));
#1154=DIRECTION('center_axis',(1.,0.,0.));
#1155=DIRECTION('ref_axis',(0.,0.,-1.));
#1156=DIRECTION('',(0.,0.,1.));
#1157=DIRECTION('',(0.,0.,-1.));
#1158=DIRECTION('',(0.,1.,0.));
#1159=DIRECTION('center_axis',(0.,1.,0.));
#1160=DIRECTION('ref_axis',(0.,0.,1.));
#1161=DIRECTION('',(0.,0.,1.));
#1162=DIRECTION('',(1.,0.,0.));
#1163=DIRECTION('center_axis',(0.,1.,0.));
#1164=DIRECTION('ref_axis',(-0.707106781186547,0.,-0.707106781186548));
#1165=DIRECTION('center_axis',(0.,1.,0.));
#1166=DIRECTION('ref_axis',(0.,0.,1.));
#1167=DIRECTION('',(-1.,0.,2.46716227694479E-16));
#1168=DIRECTION('',(0.,0.,1.));
#1169=DIRECTION('',(1.,0.,-2.15876699232669E-16));
#1170=DIRECTION('',(0.,0.,-1.));
#1171=DIRECTION('center_axis',(0.,1.,0.));
#1172=DIRECTION('ref_axis',(0.707106781186549,0.,0.707106781186546));
#1173=DIRECTION('',(0.,1.,0.));
#1174=DIRECTION('center_axis',(0.,-0.707106781186548,0.707106781186547));
#1175=DIRECTION('ref_axis',(0.,-0.707106781186547,-0.707106781186548));
#1176=DIRECTION('center_axis',(0.,0.,1.));
#1177=DIRECTION('ref_axis',(0.707106781186547,0.707106781186548,0.));
#1178=DIRECTION('',(0.,0.,-1.));
#1179=DIRECTION('center_axis',(0.,0.707106781186548,0.707106781186547));
#1180=DIRECTION('ref_axis',(0.,0.707106781186547,-0.707106781186548));
#1181=DIRECTION('center_axis',(0.,1.,0.));
#1182=DIRECTION('ref_axis',(0.707106781186548,0.,-0.707106781186548));
#1183=DIRECTION('',(0.,-1.,0.));
#1184=DIRECTION('center_axis',(-2.46716227694479E-16,0.,-1.));
#1185=DIRECTION('ref_axis',(-1.,0.,2.46716227694479E-16));
#1186=DIRECTION('',(-1.,0.,2.46716227694479E-16));
#1187=DIRECTION('',(0.,-1.,0.));
#1188=DIRECTION('center_axis',(0.,1.,0.));
#1189=DIRECTION('ref_axis',(0.,0.,1.));
#1190=DIRECTION('',(1.,0.,-2.15876699232669E-16));
#1191=DIRECTION('',(0.,0.,1.));
#1192=DIRECTION('center_axis',(2.15876699232669E-16,0.,1.));
#1193=DIRECTION('ref_axis',(1.,0.,-2.15876699232669E-16));
#1194=DIRECTION('',(0.,1.,0.));
#1195=DIRECTION('center_axis',(0.,1.,0.));
#1196=DIRECTION('ref_axis',(-0.707106781186546,0.,-0.707106781186549));
#1197=DIRECTION('center_axis',(0.,-0.707106781186547,-0.707106781186548));
#1198=DIRECTION('ref_axis',(0.,-0.707106781186548,0.707106781186547));
#1199=DIRECTION('center_axis',(0.,0.,-1.));
#1200=DIRECTION('ref_axis',(-0.707106781186546,0.707106781186549,0.));
#1201=DIRECTION('center_axis',(0.,0.707106781186548,-0.707106781186547));
#1202=DIRECTION('ref_axis',(0.,0.707106781186547,0.707106781186548));
#1203=DIRECTION('center_axis',(0.,1.,0.));
#1204=DIRECTION('ref_axis',(-0.707106781186548,0.,0.707106781186548));
#1205=DIRECTION('center_axis',(0.,0.,-1.));
#1206=DIRECTION('ref_axis',(1.,0.,0.));
#1207=DIRECTION('',(-1.,0.,0.));
#1208=DIRECTION('',(0.,-1.,0.));
#1209=DIRECTION('',(1.,0.,0.));
#1210=DIRECTION('center_axis',(0.,0.,1.));
#1211=DIRECTION('ref_axis',(-1.,0.,0.));
#1212=DIRECTION('',(1.,0.,0.));
#1213=DIRECTION('',(-1.,0.,0.));
#1214=DIRECTION('',(0.,-1.,0.));
#1215=DIRECTION('center_axis',(0.,-1.,0.));
#1216=DIRECTION('ref_axis',(0.,0.,-1.));
#1217=DIRECTION('',(0.,0.,1.));
#1218=DIRECTION('center_axis',(0.,-1.,0.));
#1219=DIRECTION('ref_axis',(0.,0.,-1.));
#1220=DIRECTION('',(0.,0.,1.));
#1221=DIRECTION('',(-1.,0.,-4.93038065763132E-31));
#1222=DIRECTION('center_axis',(0.,0.,1.));
#1223=DIRECTION('ref_axis',(-1.,0.,0.));
#1224=DIRECTION('',(1.,0.,0.));
#1225=DIRECTION('',(0.,-1.,0.));
#1226=DIRECTION('',(-1.,0.,0.));
#1227=DIRECTION('center_axis',(0.,0.,-1.));
#1228=DIRECTION('ref_axis',(1.,0.,0.));
#1229=DIRECTION('',(-1.,0.,0.));
#1230=DIRECTION('',(0.,-1.,0.));
#1231=DIRECTION('center_axis',(0.,-1.,0.));
#1232=DIRECTION('ref_axis',(0.,0.,-1.));
#1233=DIRECTION('',(0.,0.,-1.));
#1234=DIRECTION('center_axis',(0.,-1.,0.));
#1235=DIRECTION('ref_axis',(0.,0.,-1.));
#1236=DIRECTION('',(0.,0.,-1.));
#1237=DIRECTION('',(1.,0.,0.));
#1238=DIRECTION('center_axis',(0.,-1.,0.));
#1239=DIRECTION('ref_axis',(0.,0.,-1.));
#1240=DIRECTION('',(-1.,0.,0.));
#1241=DIRECTION('',(0.,0.,-1.));
#1242=DIRECTION('center_axis',(0.,-1.,0.));
#1243=DIRECTION('ref_axis',(0.,0.,-1.));
#1244=DIRECTION('',(1.,0.,0.));
#1245=DIRECTION('',(0.,0.,1.));
#1246=DIRECTION('center_axis',(-1.,0.,0.));
#1247=DIRECTION('ref_axis',(0.,0.,1.));
#1248=DIRECTION('',(0.,-1.,0.));
#1249=DIRECTION('',(0.,1.,0.));
#1250=DIRECTION('center_axis',(0.,0.,-1.));
#1251=DIRECTION('ref_axis',(-1.,0.,0.));
#1252=DIRECTION('center_axis',(0.,0.,-1.));
#1253=DIRECTION('ref_axis',(-1.,0.,0.));
#1254=DIRECTION('',(0.,1.,0.));
#1255=DIRECTION('center_axis',(1.,0.,0.));
#1256=DIRECTION('ref_axis',(0.,0.,-1.));
#1257=DIRECTION('',(0.,1.,0.));
#1258=DIRECTION('center_axis',(0.,0.,1.));
#1259=DIRECTION('ref_axis',(1.,0.,0.));
#1260=DIRECTION('center_axis',(0.,0.,1.));
#1261=DIRECTION('ref_axis',(1.,0.,0.));
#1262=CARTESIAN_POINT('',(0.,0.,0.));
#1263=CARTESIAN_POINT('Origin',(-84.,-22.,-32.5));
#1264=CARTESIAN_POINT('',(-76.,-22.,-19.5));
#1265=CARTESIAN_POINT('',(-76.,-22.,-32.5));
#1266=CARTESIAN_POINT('',(-76.,-22.,-16.25));
#1267=CARTESIAN_POINT('',(-84.,-22.,-19.5));
#1268=CARTESIAN_POINT('',(-84.,-22.,-19.5));
#1269=CARTESIAN_POINT('',(-84.,-22.,-32.5));
#1270=CARTESIAN_POINT('',(-84.,-22.,-61.25));
#1271=CARTESIAN_POINT('',(-84.,-22.,-32.5));
#1272=CARTESIAN_POINT('Origin',(-84.,-42.,-32.5));
#1273=CARTESIAN_POINT('',(-76.,-42.,-32.5));
#1274=CARTESIAN_POINT('',(-76.,-21.,-32.5));
#1275=CARTESIAN_POINT('',(-84.,-42.,-32.5));
#1276=CARTESIAN_POINT('',(-84.,-21.,-32.5));
#1277=CARTESIAN_POINT('',(-82.,-42.,-32.5));
#1278=CARTESIAN_POINT('Origin',(-84.,-22.,-19.5));
#1279=CARTESIAN_POINT('',(-76.,-42.,-19.5));
#1280=CARTESIAN_POINT('',(-76.,-11.,-19.5));
#1281=CARTESIAN_POINT('',(-84.,-42.,-19.5));
#1282=CARTESIAN_POINT('',(-82.,-42.,-19.5));
#1283=CARTESIAN_POINT('',(-84.,-11.,-19.5));
#1284=CARTESIAN_POINT('Origin',(-84.,-22.,-49.5));
#1285=CARTESIAN_POINT('',(-76.,-42.,-49.5));
#1286=CARTESIAN_POINT('',(-76.,-22.,-49.5));
#1287=CARTESIAN_POINT('',(-76.,-11.,-49.5));
#1288=CARTESIAN_POINT('',(-84.,-42.,-49.5));
#1289=CARTESIAN_POINT('',(-82.,-42.,-49.5));
#1290=CARTESIAN_POINT('',(-84.,-22.,-49.5));
#1291=CARTESIAN_POINT('',(-84.,-11.,-49.5));
#1292=CARTESIAN_POINT('',(-84.,-22.,-49.5));
#1293=CARTESIAN_POINT('Origin',(-84.,-42.,-65.5));
#1294=CARTESIAN_POINT('',(-76.,-22.,-65.5));
#1295=CARTESIAN_POINT('',(-76.,-42.,-65.5));
#1296=CARTESIAN_POINT('',(-76.,-21.,-65.5));
#1297=CARTESIAN_POINT('',(-84.,-22.,-65.5));
#1298=CARTESIAN_POINT('',(-84.,-22.,-65.5));
#1299=CARTESIAN_POINT('',(-84.,-42.,-65.5));
#1300=CARTESIAN_POINT('',(-84.,-21.,-65.5));
#1301=CARTESIAN_POINT('',(-82.,-42.,-65.5));
#1302=CARTESIAN_POINT('Origin',(-84.,-22.,-65.5));
#1303=CARTESIAN_POINT('',(-76.,-22.,-32.75));
#1304=CARTESIAN_POINT('',(-84.,-22.,-77.75));
#1305=CARTESIAN_POINT('Origin',(-76.,0.,0.));
#1306=CARTESIAN_POINT('',(-76.,-42.,-74.5));
#1307=CARTESIAN_POINT('',(-76.,-42.,-73.5));
#1308=CARTESIAN_POINT('',(-76.,-42.,-74.5));
#1309=CARTESIAN_POINT('',(-76.,-37.,-73.5));
#1310=CARTESIAN_POINT('',(-76.,-37.,-73.5));
#1311=CARTESIAN_POINT('',(-76.,-37.,-90.));
#1312=CARTESIAN_POINT('',(-76.,-37.,-90.));
#1313=CARTESIAN_POINT('',(-76.,13.,-90.));
#1314=CARTESIAN_POINT('',(-76.,0.,-90.));
#1315=CARTESIAN_POINT('',(-76.,13.,-76.5));
#1316=CARTESIAN_POINT('',(-76.,13.,-74.5));
#1317=CARTESIAN_POINT('',(-76.,-2.,-76.5));
#1318=CARTESIAN_POINT('',(-76.,0.,-76.5));
#1319=CARTESIAN_POINT('',(-76.,-2.,-13.5));
#1320=CARTESIAN_POINT('',(-76.,-2.,-22.5));
#1321=CARTESIAN_POINT('',(-76.,13.,-13.5));
#1322=CARTESIAN_POINT('',(-76.,0.,-13.5));
#1323=CARTESIAN_POINT('',(-76.,13.,0.));
#1324=CARTESIAN_POINT('',(-76.,13.,0.));
#1325=CARTESIAN_POINT('',(-76.,-37.,0.));
#1326=CARTESIAN_POINT('',(-76.,0.,0.));
#1327=CARTESIAN_POINT('',(-76.,-37.,-16.5));
#1328=CARTESIAN_POINT('',(-76.,-37.,-90.));
#1329=CARTESIAN_POINT('',(-76.,-42.,-16.5));
#1330=CARTESIAN_POINT('',(-76.,-37.,-16.5));
#1331=CARTESIAN_POINT('',(-76.,-42.,-74.5));
#1332=CARTESIAN_POINT('Origin',(-80.,-42.,-45.));
#1333=CARTESIAN_POINT('',(-84.,-42.,-73.5));
#1334=CARTESIAN_POINT('',(-84.,-42.,-16.5));
#1335=CARTESIAN_POINT('',(-84.,-42.,-73.5));
#1336=CARTESIAN_POINT('Origin',(-80.,-42.,-45.));
#1337=CARTESIAN_POINT('',(-84.,-42.,-16.5));
#1338=CARTESIAN_POINT('Origin',(-4.,0.,-15.5));
#1339=CARTESIAN_POINT('',(-4.,13.,-76.5));
#1340=CARTESIAN_POINT('',(-4.,-2.,-76.5));
#1341=CARTESIAN_POINT('',(-4.,0.,-76.5));
#1342=CARTESIAN_POINT('',(-4.,13.,-90.));
#1343=CARTESIAN_POINT('',(-4.,13.,-90.));
#1344=CARTESIAN_POINT('',(-4.00000000000001,-37.,-90.));
#1345=CARTESIAN_POINT('',(-4.,0.,-90.));
#1346=CARTESIAN_POINT('',(-4.00000000000001,-37.,-73.5));
#1347=CARTESIAN_POINT('',(-4.00000000000003,-37.,0.));
#1348=CARTESIAN_POINT('',(-4.00000000000001,-39.,-73.5));
#1349=CARTESIAN_POINT('',(-4.00000000000001,-37.,-73.5));
#1350=CARTESIAN_POINT('',(-4.00000000000001,-39.,-16.5));
#1351=CARTESIAN_POINT('',(-4.00000000000003,-39.,0.));
#1352=CARTESIAN_POINT('',(-4.00000000000001,-37.,-16.5));
#1353=CARTESIAN_POINT('',(-4.00000000000001,-37.,-16.5));
#1354=CARTESIAN_POINT('',(-4.00000000000003,-37.,0.));
#1355=CARTESIAN_POINT('',(-4.00000000000003,-37.,0.));
#1356=CARTESIAN_POINT('',(-4.,13.,0.));
#1357=CARTESIAN_POINT('',(-4.,0.,-1.97215226305253E-30));
#1358=CARTESIAN_POINT('',(-4.,13.,-13.5));
#1359=CARTESIAN_POINT('',(-4.,13.,-15.5));
#1360=CARTESIAN_POINT('',(-4.,-2.,-13.5));
#1361=CARTESIAN_POINT('',(-4.,0.,-13.5));
#1362=CARTESIAN_POINT('',(-4.,-2.,-30.25));
#1363=CARTESIAN_POINT('Origin',(-10.,4.,-72.5));
#1364=CARTESIAN_POINT('',(0.,4.,-72.5));
#1365=CARTESIAN_POINT('',(-10.,4.,-72.5));
#1366=CARTESIAN_POINT('',(-26.,4.,-72.5));
#1367=CARTESIAN_POINT('',(0.,13.,-72.5));
#1368=CARTESIAN_POINT('',(0.,4.,-72.5));
#1369=CARTESIAN_POINT('',(-10.,13.,-72.5));
#1370=CARTESIAN_POINT('',(-10.,13.,-72.5));
#1371=CARTESIAN_POINT('',(-10.,4.,-72.5));
#1372=CARTESIAN_POINT('Origin',(-10.,4.,-74.5));
#1373=CARTESIAN_POINT('',(-10.,4.,-74.5));
#1374=CARTESIAN_POINT('',(-10.,4.,-59.75));
#1375=CARTESIAN_POINT('',(-10.,13.,-74.5));
#1376=CARTESIAN_POINT('',(-10.,13.,-74.5));
#1377=CARTESIAN_POINT('',(-10.,4.,-74.5));
#1378=CARTESIAN_POINT('Origin',(-5.,13.,-73.5));
#1379=CARTESIAN_POINT('',(-6.,13.,-74.5));
#1380=CARTESIAN_POINT('',(0.,13.,-74.5));
#1381=CARTESIAN_POINT('',(0.,13.,-90.));
#1382=CARTESIAN_POINT('',(0.,13.,-74.5));
#1383=CARTESIAN_POINT('',(0.,13.,-90.));
#1384=CARTESIAN_POINT('Origin',(-6.,13.,-76.5));
#1385=CARTESIAN_POINT('Origin',(-74.,4.,-72.5));
#1386=CARTESIAN_POINT('',(-74.,4.,-74.5));
#1387=CARTESIAN_POINT('',(-74.,4.,-72.5));
#1388=CARTESIAN_POINT('',(-74.,4.,-58.75));
#1389=CARTESIAN_POINT('',(-74.,13.,-74.5));
#1390=CARTESIAN_POINT('',(-74.,4.,-74.5));
#1391=CARTESIAN_POINT('',(-74.,13.,-72.5));
#1392=CARTESIAN_POINT('',(-74.,13.,-72.5));
#1393=CARTESIAN_POINT('',(-74.,4.,-72.5));
#1394=CARTESIAN_POINT('Origin',(-84.,4.,-72.5));
#1395=CARTESIAN_POINT('',(-84.,4.,-72.5));
#1396=CARTESIAN_POINT('',(-63.,4.,-72.5));
#1397=CARTESIAN_POINT('',(-84.,13.,-72.5));
#1398=CARTESIAN_POINT('',(-84.,13.,-72.5));
#1399=CARTESIAN_POINT('',(-84.,4.,-72.5));
#1400=CARTESIAN_POINT('Origin',(-79.,13.,-73.5));
#1401=CARTESIAN_POINT('',(-84.,13.,-90.));
#1402=CARTESIAN_POINT('',(-84.,13.,-74.5));
#1403=CARTESIAN_POINT('Origin',(-74.,13.,-76.5));
#1404=CARTESIAN_POINT('',(-76.,13.,-90.));
#1405=CARTESIAN_POINT('Origin',(-10.,4.,-17.5));
#1406=CARTESIAN_POINT('',(-10.,4.,-15.5));
#1407=CARTESIAN_POINT('',(-10.,4.,-17.5));
#1408=CARTESIAN_POINT('',(-10.,4.,-31.25));
#1409=CARTESIAN_POINT('',(-10.,13.,-15.5));
#1410=CARTESIAN_POINT('',(-10.,4.,-15.5));
#1411=CARTESIAN_POINT('',(-10.,13.,-17.5));
#1412=CARTESIAN_POINT('',(-10.,13.,-17.5));
#1413=CARTESIAN_POINT('',(-10.,4.,-17.5));
#1414=CARTESIAN_POINT('Origin',(0.,4.,-17.5));
#1415=CARTESIAN_POINT('',(0.,4.,-17.5));
#1416=CARTESIAN_POINT('',(-21.,4.,-17.5));
#1417=CARTESIAN_POINT('',(0.,13.,-17.5));
#1418=CARTESIAN_POINT('',(0.,13.,-17.5));
#1419=CARTESIAN_POINT('',(0.,4.,-17.5));
#1420=CARTESIAN_POINT('Origin',(-5.,13.,-16.5));
#1421=CARTESIAN_POINT('',(-6.00000000000001,13.,-15.5));
#1422=CARTESIAN_POINT('',(-10.,13.,-15.5));
#1423=CARTESIAN_POINT('Origin',(-6.00000000000001,13.,-13.5));
#1424=CARTESIAN_POINT('',(0.,13.,0.));
#1425=CARTESIAN_POINT('',(-4.,13.,-1.97215226305253E-30));
#1426=CARTESIAN_POINT('',(0.,13.,-15.5));
#1427=CARTESIAN_POINT('Origin',(-74.,4.,-17.5));
#1428=CARTESIAN_POINT('',(-84.,4.,-17.5));
#1429=CARTESIAN_POINT('',(-74.,4.,-17.5));
#1430=CARTESIAN_POINT('',(-58.,4.,-17.5));
#1431=CARTESIAN_POINT('',(-84.,13.,-17.5));
#1432=CARTESIAN_POINT('',(-84.,4.,-17.5));
#1433=CARTESIAN_POINT('',(-74.,13.,-17.5));
#1434=CARTESIAN_POINT('',(-74.,13.,-17.5));
#1435=CARTESIAN_POINT('',(-74.,4.,-17.5));
#1436=CARTESIAN_POINT('Origin',(-74.,4.,-15.5));
#1437=CARTESIAN_POINT('',(-74.,4.,-15.5));
#1438=CARTESIAN_POINT('',(-74.,4.,-30.25));
#1439=CARTESIAN_POINT('',(-74.,13.,-15.5));
#1440=CARTESIAN_POINT('',(-74.,13.,-15.5));
#1441=CARTESIAN_POINT('',(-74.,4.,-15.5));
#1442=CARTESIAN_POINT('Origin',(-79.,13.,-16.5));
#1443=CARTESIAN_POINT('',(-84.,13.,0.));
#1444=CARTESIAN_POINT('',(-84.,13.,-15.5));
#1445=CARTESIAN_POINT('',(-84.,13.,0.));
#1446=CARTESIAN_POINT('Origin',(-74.,13.,-13.5));
#1447=CARTESIAN_POINT('Origin',(-42.,4.,-45.));
#1448=CARTESIAN_POINT('',(-4.,4.,-74.5));
#1449=CARTESIAN_POINT('',(-84.,4.,-90.));
#1450=CARTESIAN_POINT('',(-76.,4.,-15.5));
#1451=CARTESIAN_POINT('',(0.,4.,0.));
#1452=CARTESIAN_POINT('Origin',(-6.,0.,-76.5));
#1453=CARTESIAN_POINT('',(-6.,0.,-74.5));
#1454=CARTESIAN_POINT('',(-6.,0.,-74.5));
#1455=CARTESIAN_POINT('Origin',(-6.,-2.,-76.5));
#1456=CARTESIAN_POINT('Origin',(-6.,-2.,-30.25));
#1457=CARTESIAN_POINT('',(-6.00000000000001,0.,-15.5));
#1458=CARTESIAN_POINT('',(-6.,0.,-30.25));
#1459=CARTESIAN_POINT('Origin',(-6.,-2.,-13.5));
#1460=CARTESIAN_POINT('Origin',(-6.00000000000001,0.,-13.5));
#1461=CARTESIAN_POINT('',(-6.00000000000001,0.,-15.5));
#1462=CARTESIAN_POINT('Origin',(-4.,0.,-74.5));
#1463=CARTESIAN_POINT('',(-74.,0.,-74.5));
#1464=CARTESIAN_POINT('',(-4.,0.,-74.5));
#1465=CARTESIAN_POINT('',(-74.,0.,-74.5));
#1466=CARTESIAN_POINT('Origin',(-42.,0.,-45.));
#1467=CARTESIAN_POINT('',(-74.,0.,-15.5));
#1468=CARTESIAN_POINT('',(-76.,0.,-15.5));
#1469=CARTESIAN_POINT('',(-74.,0.,-22.5));
#1470=CARTESIAN_POINT('Origin',(-76.,0.,-15.5));
#1471=CARTESIAN_POINT('',(-74.,0.,-15.5));
#1472=CARTESIAN_POINT('Origin',(-74.,0.,-13.5));
#1473=CARTESIAN_POINT('Origin',(-74.,-2.,-13.5));
#1474=CARTESIAN_POINT('Origin',(-74.,-2.,-22.5));
#1475=CARTESIAN_POINT('Origin',(-74.,-2.,-76.5));
#1476=CARTESIAN_POINT('Origin',(-74.,0.,-76.5));
#1477=CARTESIAN_POINT('Origin',(-4.00000000000001,-37.,-73.5));
#1478=CARTESIAN_POINT('',(-1.38777878078145E-14,-37.,-73.5));
#1479=CARTESIAN_POINT('',(-3.00000000000001,-37.,-73.5));
#1480=CARTESIAN_POINT('',(-1.38777878078145E-14,-39.,-73.5));
#1481=CARTESIAN_POINT('',(-1.38777878078145E-14,-37.,-73.5));
#1482=CARTESIAN_POINT('',(-4.00000000000001,-39.,-73.5));
#1483=CARTESIAN_POINT('Origin',(-1.38777878078145E-14,-37.,-16.5));
#1484=CARTESIAN_POINT('',(-1.38777878078145E-14,-37.,-16.5));
#1485=CARTESIAN_POINT('',(-1.00000000000001,-37.,-16.5));
#1486=CARTESIAN_POINT('',(-1.38777878078145E-14,-39.,-16.5));
#1487=CARTESIAN_POINT('',(-1.38777878078145E-14,-39.,-16.5));
#1488=CARTESIAN_POINT('',(-1.38777878078145E-14,-37.,-16.5));
#1489=CARTESIAN_POINT('Origin',(-2.00000000000002,-39.,-45.));
#1490=CARTESIAN_POINT('',(-1.38777878078145E-14,-39.,-73.5));
#1491=CARTESIAN_POINT('Origin',(-2.00000000000001,-37.,-45.));
#1492=CARTESIAN_POINT('',(0.,-37.,0.));
#1493=CARTESIAN_POINT('',(0.,-37.,-90.));
#1494=CARTESIAN_POINT('',(0.,-37.,0.));
#1495=CARTESIAN_POINT('Origin',(-76.,-37.,-16.5));
#1496=CARTESIAN_POINT('',(-84.,-37.,-16.5));
#1497=CARTESIAN_POINT('',(-78.,-37.,-16.5));
#1498=CARTESIAN_POINT('',(-84.,-42.,-16.5));
#1499=CARTESIAN_POINT('',(-84.,-37.,-16.5));
#1500=CARTESIAN_POINT('',(-76.,-42.,-16.5));
#1501=CARTESIAN_POINT('Origin',(-84.,-37.,-73.5));
#1502=CARTESIAN_POINT('',(-84.,-37.,-73.5));
#1503=CARTESIAN_POINT('',(-82.,-37.,-73.5));
#1504=CARTESIAN_POINT('',(-84.,-37.,-73.5));
#1505=CARTESIAN_POINT('Origin',(-80.,-42.,-45.));
#1506=CARTESIAN_POINT('',(-84.,-42.,-16.5));
#1507=CARTESIAN_POINT('Origin',(-80.,-37.,-45.));
#1508=CARTESIAN_POINT('',(-84.,-37.,-90.));
#1509=CARTESIAN_POINT('',(-84.,-37.,0.));
#1510=CARTESIAN_POINT('',(-84.,-37.,-90.));
#1511=CARTESIAN_POINT('Origin',(-80.,-37.,-45.));
#1512=CARTESIAN_POINT('',(-84.,-37.,0.));
#1513=CARTESIAN_POINT('',(-76.,-37.,0.));
#1514=CARTESIAN_POINT('',(-84.,-37.,0.));
#1515=CARTESIAN_POINT('Origin',(-2.00000000000001,-37.,-45.));
#1516=CARTESIAN_POINT('',(0.,-37.,-90.));
#1517=CARTESIAN_POINT('',(-4.00000000000001,-37.,-90.));
#1518=CARTESIAN_POINT('',(0.,-37.,-90.));
#1519=CARTESIAN_POINT('Origin',(-84.,0.,-90.));
#1520=CARTESIAN_POINT('',(-84.,0.,0.));
#1521=CARTESIAN_POINT('',(-84.,0.,-90.));
#1522=CARTESIAN_POINT('Origin',(-76.,0.,-90.));
#1523=CARTESIAN_POINT('Origin',(0.,0.,-90.));
#1524=CARTESIAN_POINT('',(0.,0.,-90.));
#1525=CARTESIAN_POINT('Origin',(0.,0.,0.));
#1526=CARTESIAN_POINT('',(0.,0.,0.));
#1527=CARTESIAN_POINT('Origin',(-4.,0.,0.));
#1528=CARTESIAN_POINT('Origin',(-84.,0.,0.));
#1529=UNCERTAINTY_MEASURE_WITH_UNIT(LENGTH_MEASURE(0.01),#1533,
'DISTANCE_ACCURACY_VALUE',
'Maximum model space distance between geometric entities at asserted c
onnectivities');
#1530=UNCERTAINTY_MEASURE_WITH_UNIT(LENGTH_MEASURE(0.01),#1533,
'DISTANCE_ACCURACY_VALUE',
'Maximum model space distance between geometric entities at asserted c
onnectivities');
#1531=(
GEOMETRIC_REPRESENTATION_CONTEXT(3)
GLOBAL_UNCERTAINTY_ASSIGNED_CONTEXT((#1529))
GLOBAL_UNIT_ASSIGNED_CONTEXT((#1533,#1535,#1536))
REPRESENTATION_CONTEXT('','3D')
);
#1532=(
GEOMETRIC_REPRESENTATION_CONTEXT(3)
GLOBAL_UNCERTAINTY_ASSIGNED_CONTEXT((#1530))
GLOBAL_UNIT_ASSIGNED_CONTEXT((#1533,#1535,#1536))
REPRESENTATION_CONTEXT('','3D')
);
#1533=(
LENGTH_UNIT()
NAMED_UNIT(*)
SI_UNIT(.MILLI.,.METRE.)
);
#1534=(
LENGTH_UNIT()
NAMED_UNIT(*)
SI_UNIT(.CENTI.,.METRE.)
);
#1535=(
NAMED_UNIT(*)
PLANE_ANGLE_UNIT()
SI_UNIT($,.RADIAN.)
);
#1536=(
NAMED_UNIT(*)
SI_UNIT($,.STERADIAN.)
SOLID_ANGLE_UNIT()
);
#1537=SHAPE_DEFINITION_REPRESENTATION(#1538,#1539);
#1538=PRODUCT_DEFINITION_SHAPE('',$,#1541);
#1539=SHAPE_REPRESENTATION('',(#967),#1531);
#1540=PRODUCT_DEFINITION_CONTEXT('part definition',#1545,'design');
#1541=PRODUCT_DEFINITION('Breadboard_insert','Breadboard_insert',#1542,
#1540);
#1542=PRODUCT_DEFINITION_FORMATION('',$,#1547);
#1543=PRODUCT_RELATED_PRODUCT_CATEGORY('Breadboard_insert',
'Breadboard_insert',(#1547));
#1544=APPLICATION_PROTOCOL_DEFINITION('international standard',
'automotive_design',2009,#1545);
#1545=APPLICATION_CONTEXT(
'Core Data for Automotive Mechanical Design Process');
#1546=PRODUCT_CONTEXT('part definition',#1545,'mechanical');
#1547=PRODUCT('Breadboard_insert','Breadboard_insert',$,(#1546));
#1548=PRESENTATION_STYLE_ASSIGNMENT((#1549));
#1549=SURFACE_STYLE_USAGE(.BOTH.,#1552);
#1550=SURFACE_STYLE_RENDERING_WITH_PROPERTIES($,#1556,(#1551));
#1551=SURFACE_STYLE_TRANSPARENT(0.);
#1552=SURFACE_SIDE_STYLE('',(#1553,#1550));
#1553=SURFACE_STYLE_FILL_AREA(#1554);
#1554=FILL_AREA_STYLE('',(#1555));
#1555=FILL_AREA_STYLE_COLOUR('',#1556);
#1556=COLOUR_RGB('',0.749019607843137,0.749019607843137,0.749019607843137);
ENDSEC;
END-ISO-10303-21;
